<?xml version="1.0" standalone="no"?>
<!DOCTYPE svg PUBLIC "-//W3C//DTD SVG 1.1//EN" "http://www.w3.org/Graphics/SVG/1.1/DTD/svg11.dtd" >
<svg xmlns="http://www.w3.org/2000/svg" xmlns:xlink="http://www.w3.org/1999/xlink" version="1.1">
<metadata>
Created by FontForge 20170924 at Wed Apr 29 15:27:01 2020
 By www-data
</metadata>
<defs>
<font id="TwemojiMozilla" horiz-adv-x="512" >
  <font-face 
    font-family="Twemoji Mozilla"
    font-weight="400"
    font-stretch="normal"
    units-per-em="512"
    panose-1="2 0 5 9 0 0 0 0 0 0"
    ascent="448"
    descent="-64"
    bbox="-5 -67 515 449.2"
    underline-thickness="25"
    underline-position="-100"
    unicode-range="U+0023-E007F"
  />
<missing-glyph 
d="M17 0v341h136v-341h-136zM34 17h102v307h-102v-307z" />
    <glyph glyph-name=".notdef" 
d="M17 0v341h136v-341h-136zM34 17h102v307h-102v-307z" />
    <glyph glyph-name=".null" horiz-adv-x="0" 
 />
    <glyph glyph-name="nonmarkingreturn" 
 />
    <glyph glyph-name="u23" unicode="#" 
 />
    <glyph glyph-name="u2a" unicode="*" 
 />
    <glyph glyph-name="u30" unicode="0" 
 />
    <glyph glyph-name="u31" unicode="1" 
 />
    <glyph glyph-name="u32" unicode="2" 
 />
    <glyph glyph-name="u33" unicode="3" 
 />
    <glyph glyph-name="u34" unicode="4" 
 />
    <glyph glyph-name="u35" unicode="5" 
 />
    <glyph glyph-name="u36" unicode="6" 
 />
    <glyph glyph-name="u37" unicode="7" 
 />
    <glyph glyph-name="u38" unicode="8" 
 />
    <glyph glyph-name="u39" unicode="9" 
 />
    <glyph glyph-name="ua9" unicode="&#xa9;" 
 />
    <glyph glyph-name="uae" unicode="&#xae;" 
 />
    <glyph glyph-name="u200d" unicode="&#x200d;" 
 />
    <glyph glyph-name="u203c" unicode="&#x203c;" 
 />
    <glyph glyph-name="u2049" unicode="&#x2049;" 
 />
    <glyph glyph-name="u20e3" unicode="&#x20e3;" 
 />
    <glyph glyph-name="u2122" unicode="&#x2122;" 
 />
    <glyph glyph-name="u2139" unicode="&#x2139;" 
 />
    <glyph glyph-name="u2194" unicode="&#x2194;" 
 />
    <glyph glyph-name="u2195" unicode="&#x2195;" 
 />
    <glyph glyph-name="u2196" unicode="&#x2196;" 
 />
    <glyph glyph-name="u2197" unicode="&#x2197;" 
 />
    <glyph glyph-name="u2198" unicode="&#x2198;" 
 />
    <glyph glyph-name="u2199" unicode="&#x2199;" 
 />
    <glyph glyph-name="u21a9" unicode="&#x21a9;" 
 />
    <glyph glyph-name="u21aa" unicode="&#x21aa;" 
 />
    <glyph glyph-name="u231a" unicode="&#x231a;" 
 />
    <glyph glyph-name="u231b" unicode="&#x231b;" 
 />
    <glyph glyph-name="u2328" unicode="&#x2328;" 
 />
    <glyph glyph-name="u23cf" unicode="&#x23cf;" 
 />
    <glyph glyph-name="u23e9" unicode="&#x23e9;" 
 />
    <glyph glyph-name="u23ea" unicode="&#x23ea;" 
 />
    <glyph glyph-name="u23eb" unicode="&#x23eb;" 
 />
    <glyph glyph-name="u23ec" unicode="&#x23ec;" 
 />
    <glyph glyph-name="u23ed" unicode="&#x23ed;" 
 />
    <glyph glyph-name="u23ee" unicode="&#x23ee;" 
 />
    <glyph glyph-name="u23ef" unicode="&#x23ef;" 
 />
    <glyph glyph-name="u23f0" unicode="&#x23f0;" 
 />
    <glyph glyph-name="u23f1" unicode="&#x23f1;" 
 />
    <glyph glyph-name="u23f2" unicode="&#x23f2;" 
 />
    <glyph glyph-name="u23f3" unicode="&#x23f3;" 
 />
    <glyph glyph-name="u23f8" unicode="&#x23f8;" 
 />
    <glyph glyph-name="u23f9" unicode="&#x23f9;" 
 />
    <glyph glyph-name="u23fa" unicode="&#x23fa;" 
 />
    <glyph glyph-name="u24c2" unicode="&#x24c2;" 
 />
    <glyph glyph-name="u25aa" unicode="&#x25aa;" 
 />
    <glyph glyph-name="u25ab" unicode="&#x25ab;" 
 />
    <glyph glyph-name="u25b6" unicode="&#x25b6;" 
 />
    <glyph glyph-name="u25c0" unicode="&#x25c0;" 
 />
    <glyph glyph-name="u25fb" unicode="&#x25fb;" 
 />
    <glyph glyph-name="u25fc" unicode="&#x25fc;" 
 />
    <glyph glyph-name="u25fd" unicode="&#x25fd;" 
 />
    <glyph glyph-name="u25fe" unicode="&#x25fe;" 
 />
    <glyph glyph-name="u2600" unicode="&#x2600;" 
 />
    <glyph glyph-name="u2601" unicode="&#x2601;" 
 />
    <glyph glyph-name="u2602" unicode="&#x2602;" 
 />
    <glyph glyph-name="u2603" unicode="&#x2603;" 
 />
    <glyph glyph-name="u2604" unicode="&#x2604;" 
 />
    <glyph glyph-name="u260e" unicode="&#x260e;" 
 />
    <glyph glyph-name="u2611" unicode="&#x2611;" 
 />
    <glyph glyph-name="u2614" unicode="&#x2614;" 
 />
    <glyph glyph-name="u2615" unicode="&#x2615;" 
 />
    <glyph glyph-name="u2618" unicode="&#x2618;" 
 />
    <glyph glyph-name="u261d" unicode="&#x261d;" 
 />
    <glyph glyph-name="u2620" unicode="&#x2620;" 
 />
    <glyph glyph-name="u2622" unicode="&#x2622;" 
 />
    <glyph glyph-name="u2623" unicode="&#x2623;" 
 />
    <glyph glyph-name="u2626" unicode="&#x2626;" 
 />
    <glyph glyph-name="u262a" unicode="&#x262a;" 
 />
    <glyph glyph-name="u262e" unicode="&#x262e;" 
 />
    <glyph glyph-name="u262f" unicode="&#x262f;" 
 />
    <glyph glyph-name="u2638" unicode="&#x2638;" 
 />
    <glyph glyph-name="u2639" unicode="&#x2639;" 
 />
    <glyph glyph-name="u263a" unicode="&#x263a;" 
 />
    <glyph glyph-name="u2640" unicode="&#x2640;" 
 />
    <glyph glyph-name="u2642" unicode="&#x2642;" 
 />
    <glyph glyph-name="u2648" unicode="&#x2648;" 
 />
    <glyph glyph-name="u2649" unicode="&#x2649;" 
 />
    <glyph glyph-name="u264a" unicode="&#x264a;" 
 />
    <glyph glyph-name="u264b" unicode="&#x264b;" 
 />
    <glyph glyph-name="u264c" unicode="&#x264c;" 
 />
    <glyph glyph-name="u264d" unicode="&#x264d;" 
 />
    <glyph glyph-name="u264e" unicode="&#x264e;" 
 />
    <glyph glyph-name="u264f" unicode="&#x264f;" 
 />
    <glyph glyph-name="u2650" unicode="&#x2650;" 
 />
    <glyph glyph-name="u2651" unicode="&#x2651;" 
 />
    <glyph glyph-name="u2652" unicode="&#x2652;" 
 />
    <glyph glyph-name="u2653" unicode="&#x2653;" 
 />
    <glyph glyph-name="u265f" unicode="&#x265f;" 
 />
    <glyph glyph-name="u2660" unicode="&#x2660;" 
 />
    <glyph glyph-name="u2663" unicode="&#x2663;" 
 />
    <glyph glyph-name="u2665" unicode="&#x2665;" 
 />
    <glyph glyph-name="u2666" unicode="&#x2666;" 
 />
    <glyph glyph-name="u2668" unicode="&#x2668;" 
 />
    <glyph glyph-name="u267b" unicode="&#x267b;" 
 />
    <glyph glyph-name="u267e" unicode="&#x267e;" 
 />
    <glyph glyph-name="u267f" unicode="&#x267f;" 
 />
    <glyph glyph-name="u2692" unicode="&#x2692;" 
 />
    <glyph glyph-name="u2693" unicode="&#x2693;" 
 />
    <glyph glyph-name="u2694" unicode="&#x2694;" 
 />
    <glyph glyph-name="u2695" unicode="&#x2695;" 
 />
    <glyph glyph-name="u2696" unicode="&#x2696;" 
 />
    <glyph glyph-name="u2697" unicode="&#x2697;" 
 />
    <glyph glyph-name="u2699" unicode="&#x2699;" 
 />
    <glyph glyph-name="u269b" unicode="&#x269b;" 
 />
    <glyph glyph-name="u269c" unicode="&#x269c;" 
 />
    <glyph glyph-name="u26a0" unicode="&#x26a0;" 
 />
    <glyph glyph-name="u26a1" unicode="&#x26a1;" 
 />
    <glyph glyph-name="u26a7" unicode="&#x26a7;" 
 />
    <glyph glyph-name="u26aa" unicode="&#x26aa;" 
 />
    <glyph glyph-name="u26ab" unicode="&#x26ab;" 
 />
    <glyph glyph-name="u26b0" unicode="&#x26b0;" 
 />
    <glyph glyph-name="u26b1" unicode="&#x26b1;" 
 />
    <glyph glyph-name="u26bd" unicode="&#x26bd;" 
 />
    <glyph glyph-name="u26be" unicode="&#x26be;" 
 />
    <glyph glyph-name="u26c4" unicode="&#x26c4;" 
 />
    <glyph glyph-name="u26c5" unicode="&#x26c5;" 
 />
    <glyph glyph-name="u26c8" unicode="&#x26c8;" 
 />
    <glyph glyph-name="u26ce" unicode="&#x26ce;" 
 />
    <glyph glyph-name="u26cf" unicode="&#x26cf;" 
 />
    <glyph glyph-name="u26d1" unicode="&#x26d1;" 
 />
    <glyph glyph-name="u26d3" unicode="&#x26d3;" 
 />
    <glyph glyph-name="u26d4" unicode="&#x26d4;" 
 />
    <glyph glyph-name="u26e9" unicode="&#x26e9;" 
 />
    <glyph glyph-name="u26ea" unicode="&#x26ea;" 
 />
    <glyph glyph-name="u26f0" unicode="&#x26f0;" 
 />
    <glyph glyph-name="u26f1" unicode="&#x26f1;" 
 />
    <glyph glyph-name="u26f2" unicode="&#x26f2;" 
 />
    <glyph glyph-name="u26f3" unicode="&#x26f3;" 
 />
    <glyph glyph-name="u26f4" unicode="&#x26f4;" 
 />
    <glyph glyph-name="u26f5" unicode="&#x26f5;" 
 />
    <glyph glyph-name="u26f7" unicode="&#x26f7;" 
 />
    <glyph glyph-name="u26f8" unicode="&#x26f8;" 
 />
    <glyph glyph-name="u26f9" unicode="&#x26f9;" 
 />
    <glyph glyph-name="u26fa" unicode="&#x26fa;" 
 />
    <glyph glyph-name="u26fd" unicode="&#x26fd;" 
 />
    <glyph glyph-name="u2702" unicode="&#x2702;" 
 />
    <glyph glyph-name="u2705" unicode="&#x2705;" 
 />
    <glyph glyph-name="u2708" unicode="&#x2708;" 
 />
    <glyph glyph-name="u2709" unicode="&#x2709;" 
 />
    <glyph glyph-name="u270a" unicode="&#x270a;" 
 />
    <glyph glyph-name="u270b" unicode="&#x270b;" 
 />
    <glyph glyph-name="u270c" unicode="&#x270c;" 
 />
    <glyph glyph-name="u270d" unicode="&#x270d;" 
 />
    <glyph glyph-name="u270f" unicode="&#x270f;" 
 />
    <glyph glyph-name="u2712" unicode="&#x2712;" 
 />
    <glyph glyph-name="u2714" unicode="&#x2714;" 
 />
    <glyph glyph-name="u2716" unicode="&#x2716;" 
 />
    <glyph glyph-name="u271d" unicode="&#x271d;" 
 />
    <glyph glyph-name="u2721" unicode="&#x2721;" 
 />
    <glyph glyph-name="u2728" unicode="&#x2728;" 
 />
    <glyph glyph-name="u2733" unicode="&#x2733;" 
 />
    <glyph glyph-name="u2734" unicode="&#x2734;" 
 />
    <glyph glyph-name="u2744" unicode="&#x2744;" 
 />
    <glyph glyph-name="u2747" unicode="&#x2747;" 
 />
    <glyph glyph-name="u274c" unicode="&#x274c;" 
 />
    <glyph glyph-name="u274e" unicode="&#x274e;" 
 />
    <glyph glyph-name="u2753" unicode="&#x2753;" 
 />
    <glyph glyph-name="u2754" unicode="&#x2754;" 
 />
    <glyph glyph-name="u2755" unicode="&#x2755;" 
 />
    <glyph glyph-name="u2757" unicode="&#x2757;" 
 />
    <glyph glyph-name="u2763" unicode="&#x2763;" 
 />
    <glyph glyph-name="u2764" unicode="&#x2764;" 
 />
    <glyph glyph-name="u2795" unicode="&#x2795;" 
 />
    <glyph glyph-name="u2796" unicode="&#x2796;" 
 />
    <glyph glyph-name="u2797" unicode="&#x2797;" 
 />
    <glyph glyph-name="u27a1" unicode="&#x27a1;" 
 />
    <glyph glyph-name="u27b0" unicode="&#x27b0;" 
 />
    <glyph glyph-name="u27bf" unicode="&#x27bf;" 
 />
    <glyph glyph-name="u2934" unicode="&#x2934;" 
 />
    <glyph glyph-name="u2935" unicode="&#x2935;" 
 />
    <glyph glyph-name="u2b05" unicode="&#x2b05;" 
 />
    <glyph glyph-name="u2b06" unicode="&#x2b06;" 
 />
    <glyph glyph-name="u2b07" unicode="&#x2b07;" 
 />
    <glyph glyph-name="u2b1b" unicode="&#x2b1b;" 
 />
    <glyph glyph-name="u2b1c" unicode="&#x2b1c;" 
 />
    <glyph glyph-name="u2b50" unicode="&#x2b50;" 
 />
    <glyph glyph-name="u2b55" unicode="&#x2b55;" 
 />
    <glyph glyph-name="u3030" unicode="&#x3030;" 
 />
    <glyph glyph-name="u303d" unicode="&#x303d;" 
 />
    <glyph glyph-name="u3297" unicode="&#x3297;" 
 />
    <glyph glyph-name="u3299" unicode="&#x3299;" 
 />
    <glyph glyph-name="ue50a" unicode="&#xe50a;" 
 />
    <glyph glyph-name="ufe0f" unicode="&#xfe0f;" 
 />
    <glyph glyph-name="u1f004" unicode="&#x1f004;" 
 />
    <glyph glyph-name="u1f0cf" unicode="&#x1f0cf;" 
 />
    <glyph glyph-name="u1f170" unicode="&#x1f170;" 
 />
    <glyph glyph-name="u1f171" unicode="&#x1f171;" 
 />
    <glyph glyph-name="u1f17e" unicode="&#x1f17e;" 
 />
    <glyph glyph-name="u1f17f" unicode="&#x1f17f;" 
 />
    <glyph glyph-name="u1f18e" unicode="&#x1f18e;" 
 />
    <glyph glyph-name="u1f191" unicode="&#x1f191;" 
 />
    <glyph glyph-name="u1f192" unicode="&#x1f192;" 
 />
    <glyph glyph-name="u1f193" unicode="&#x1f193;" 
 />
    <glyph glyph-name="u1f194" unicode="&#x1f194;" 
 />
    <glyph glyph-name="u1f195" unicode="&#x1f195;" 
 />
    <glyph glyph-name="u1f196" unicode="&#x1f196;" 
 />
    <glyph glyph-name="u1f197" unicode="&#x1f197;" 
 />
    <glyph glyph-name="u1f198" unicode="&#x1f198;" 
 />
    <glyph glyph-name="u1f199" unicode="&#x1f199;" 
 />
    <glyph glyph-name="u1f19a" unicode="&#x1f19a;" 
 />
    <glyph glyph-name="u1f1e6" unicode="&#x1f1e6;" 
 />
    <glyph glyph-name="u1f1e7" unicode="&#x1f1e7;" 
 />
    <glyph glyph-name="u1f1e8" unicode="&#x1f1e8;" 
 />
    <glyph glyph-name="u1f1e9" unicode="&#x1f1e9;" 
 />
    <glyph glyph-name="u1f1ea" unicode="&#x1f1ea;" 
 />
    <glyph glyph-name="u1f1eb" unicode="&#x1f1eb;" 
 />
    <glyph glyph-name="u1f1ec" unicode="&#x1f1ec;" 
 />
    <glyph glyph-name="u1f1ed" unicode="&#x1f1ed;" 
 />
    <glyph glyph-name="u1f1ee" unicode="&#x1f1ee;" 
 />
    <glyph glyph-name="u1f1ef" unicode="&#x1f1ef;" 
 />
    <glyph glyph-name="u1f1f0" unicode="&#x1f1f0;" 
 />
    <glyph glyph-name="u1f1f1" unicode="&#x1f1f1;" 
 />
    <glyph glyph-name="u1f1f2" unicode="&#x1f1f2;" 
 />
    <glyph glyph-name="u1f1f3" unicode="&#x1f1f3;" 
 />
    <glyph glyph-name="u1f1f4" unicode="&#x1f1f4;" 
 />
    <glyph glyph-name="u1f1f5" unicode="&#x1f1f5;" 
 />
    <glyph glyph-name="u1f1f6" unicode="&#x1f1f6;" 
 />
    <glyph glyph-name="u1f1f7" unicode="&#x1f1f7;" 
 />
    <glyph glyph-name="u1f1f8" unicode="&#x1f1f8;" 
 />
    <glyph glyph-name="u1f1f9" unicode="&#x1f1f9;" 
 />
    <glyph glyph-name="u1f1fa" unicode="&#x1f1fa;" 
 />
    <glyph glyph-name="u1f1fb" unicode="&#x1f1fb;" 
 />
    <glyph glyph-name="u1f1fc" unicode="&#x1f1fc;" 
 />
    <glyph glyph-name="u1f1fd" unicode="&#x1f1fd;" 
 />
    <glyph glyph-name="u1f1fe" unicode="&#x1f1fe;" 
 />
    <glyph glyph-name="u1f1ff" unicode="&#x1f1ff;" 
 />
    <glyph glyph-name="u1f201" unicode="&#x1f201;" 
 />
    <glyph glyph-name="u1f202" unicode="&#x1f202;" 
 />
    <glyph glyph-name="u1f21a" unicode="&#x1f21a;" 
 />
    <glyph glyph-name="u1f22f" unicode="&#x1f22f;" 
 />
    <glyph glyph-name="u1f232" unicode="&#x1f232;" 
 />
    <glyph glyph-name="u1f233" unicode="&#x1f233;" 
 />
    <glyph glyph-name="u1f234" unicode="&#x1f234;" 
 />
    <glyph glyph-name="u1f235" unicode="&#x1f235;" 
 />
    <glyph glyph-name="u1f236" unicode="&#x1f236;" 
 />
    <glyph glyph-name="u1f237" unicode="&#x1f237;" 
 />
    <glyph glyph-name="u1f238" unicode="&#x1f238;" 
 />
    <glyph glyph-name="u1f239" unicode="&#x1f239;" 
 />
    <glyph glyph-name="u1f23a" unicode="&#x1f23a;" 
 />
    <glyph glyph-name="u1f250" unicode="&#x1f250;" 
 />
    <glyph glyph-name="u1f251" unicode="&#x1f251;" 
 />
    <glyph glyph-name="u1f300" unicode="&#x1f300;" 
 />
    <glyph glyph-name="u1f301" unicode="&#x1f301;" 
 />
    <glyph glyph-name="u1f302" unicode="&#x1f302;" 
 />
    <glyph glyph-name="u1f303" unicode="&#x1f303;" 
 />
    <glyph glyph-name="u1f304" unicode="&#x1f304;" 
 />
    <glyph glyph-name="u1f305" unicode="&#x1f305;" 
 />
    <glyph glyph-name="u1f306" unicode="&#x1f306;" 
 />
    <glyph glyph-name="u1f307" unicode="&#x1f307;" 
 />
    <glyph glyph-name="u1f308" unicode="&#x1f308;" 
 />
    <glyph glyph-name="u1f309" unicode="&#x1f309;" 
 />
    <glyph glyph-name="u1f30a" unicode="&#x1f30a;" 
 />
    <glyph glyph-name="u1f30b" unicode="&#x1f30b;" 
 />
    <glyph glyph-name="u1f30c" unicode="&#x1f30c;" 
 />
    <glyph glyph-name="u1f30d" unicode="&#x1f30d;" 
 />
    <glyph glyph-name="u1f30e" unicode="&#x1f30e;" 
 />
    <glyph glyph-name="u1f30f" unicode="&#x1f30f;" 
 />
    <glyph glyph-name="u1f310" unicode="&#x1f310;" 
 />
    <glyph glyph-name="u1f311" unicode="&#x1f311;" 
 />
    <glyph glyph-name="u1f312" unicode="&#x1f312;" 
 />
    <glyph glyph-name="u1f313" unicode="&#x1f313;" 
 />
    <glyph glyph-name="u1f314" unicode="&#x1f314;" 
 />
    <glyph glyph-name="u1f315" unicode="&#x1f315;" 
 />
    <glyph glyph-name="u1f316" unicode="&#x1f316;" 
 />
    <glyph glyph-name="u1f317" unicode="&#x1f317;" 
 />
    <glyph glyph-name="u1f318" unicode="&#x1f318;" 
 />
    <glyph glyph-name="u1f319" unicode="&#x1f319;" 
 />
    <glyph glyph-name="u1f31a" unicode="&#x1f31a;" 
 />
    <glyph glyph-name="u1f31b" unicode="&#x1f31b;" 
 />
    <glyph glyph-name="u1f31c" unicode="&#x1f31c;" 
 />
    <glyph glyph-name="u1f31d" unicode="&#x1f31d;" 
 />
    <glyph glyph-name="u1f31e" unicode="&#x1f31e;" 
 />
    <glyph glyph-name="u1f31f" unicode="&#x1f31f;" 
 />
    <glyph glyph-name="u1f320" unicode="&#x1f320;" 
 />
    <glyph glyph-name="u1f321" unicode="&#x1f321;" 
 />
    <glyph glyph-name="u1f324" unicode="&#x1f324;" 
 />
    <glyph glyph-name="u1f325" unicode="&#x1f325;" 
 />
    <glyph glyph-name="u1f326" unicode="&#x1f326;" 
 />
    <glyph glyph-name="u1f327" unicode="&#x1f327;" 
 />
    <glyph glyph-name="u1f328" unicode="&#x1f328;" 
 />
    <glyph glyph-name="u1f329" unicode="&#x1f329;" 
 />
    <glyph glyph-name="u1f32a" unicode="&#x1f32a;" 
 />
    <glyph glyph-name="u1f32b" unicode="&#x1f32b;" 
 />
    <glyph glyph-name="u1f32c" unicode="&#x1f32c;" 
 />
    <glyph glyph-name="u1f32d" unicode="&#x1f32d;" 
 />
    <glyph glyph-name="u1f32e" unicode="&#x1f32e;" 
 />
    <glyph glyph-name="u1f32f" unicode="&#x1f32f;" 
 />
    <glyph glyph-name="u1f330" unicode="&#x1f330;" 
 />
    <glyph glyph-name="u1f331" unicode="&#x1f331;" 
 />
    <glyph glyph-name="u1f332" unicode="&#x1f332;" 
 />
    <glyph glyph-name="u1f333" unicode="&#x1f333;" 
 />
    <glyph glyph-name="u1f334" unicode="&#x1f334;" 
 />
    <glyph glyph-name="u1f335" unicode="&#x1f335;" 
 />
    <glyph glyph-name="u1f336" unicode="&#x1f336;" 
 />
    <glyph glyph-name="u1f337" unicode="&#x1f337;" 
 />
    <glyph glyph-name="u1f338" unicode="&#x1f338;" 
 />
    <glyph glyph-name="u1f339" unicode="&#x1f339;" 
 />
    <glyph glyph-name="u1f33a" unicode="&#x1f33a;" 
 />
    <glyph glyph-name="u1f33b" unicode="&#x1f33b;" 
 />
    <glyph glyph-name="u1f33c" unicode="&#x1f33c;" 
 />
    <glyph glyph-name="u1f33d" unicode="&#x1f33d;" 
 />
    <glyph glyph-name="u1f33e" unicode="&#x1f33e;" 
 />
    <glyph glyph-name="u1f33f" unicode="&#x1f33f;" 
 />
    <glyph glyph-name="u1f340" unicode="&#x1f340;" 
 />
    <glyph glyph-name="u1f341" unicode="&#x1f341;" 
 />
    <glyph glyph-name="u1f342" unicode="&#x1f342;" 
 />
    <glyph glyph-name="u1f343" unicode="&#x1f343;" 
 />
    <glyph glyph-name="u1f344" unicode="&#x1f344;" 
 />
    <glyph glyph-name="u1f345" unicode="&#x1f345;" 
 />
    <glyph glyph-name="u1f346" unicode="&#x1f346;" 
 />
    <glyph glyph-name="u1f347" unicode="&#x1f347;" 
 />
    <glyph glyph-name="u1f348" unicode="&#x1f348;" 
 />
    <glyph glyph-name="u1f349" unicode="&#x1f349;" 
 />
    <glyph glyph-name="u1f34a" unicode="&#x1f34a;" 
 />
    <glyph glyph-name="u1f34b" unicode="&#x1f34b;" 
 />
    <glyph glyph-name="u1f34c" unicode="&#x1f34c;" 
 />
    <glyph glyph-name="u1f34d" unicode="&#x1f34d;" 
 />
    <glyph glyph-name="u1f34e" unicode="&#x1f34e;" 
 />
    <glyph glyph-name="u1f34f" unicode="&#x1f34f;" 
 />
    <glyph glyph-name="u1f350" unicode="&#x1f350;" 
 />
    <glyph glyph-name="u1f351" unicode="&#x1f351;" 
 />
    <glyph glyph-name="u1f352" unicode="&#x1f352;" 
 />
    <glyph glyph-name="u1f353" unicode="&#x1f353;" 
 />
    <glyph glyph-name="u1f354" unicode="&#x1f354;" 
 />
    <glyph glyph-name="u1f355" unicode="&#x1f355;" 
 />
    <glyph glyph-name="u1f356" unicode="&#x1f356;" 
 />
    <glyph glyph-name="u1f357" unicode="&#x1f357;" 
 />
    <glyph glyph-name="u1f358" unicode="&#x1f358;" 
 />
    <glyph glyph-name="u1f359" unicode="&#x1f359;" 
 />
    <glyph glyph-name="u1f35a" unicode="&#x1f35a;" 
 />
    <glyph glyph-name="u1f35b" unicode="&#x1f35b;" 
 />
    <glyph glyph-name="u1f35c" unicode="&#x1f35c;" 
 />
    <glyph glyph-name="u1f35d" unicode="&#x1f35d;" 
 />
    <glyph glyph-name="u1f35e" unicode="&#x1f35e;" 
 />
    <glyph glyph-name="u1f35f" unicode="&#x1f35f;" 
 />
    <glyph glyph-name="u1f360" unicode="&#x1f360;" 
 />
    <glyph glyph-name="u1f361" unicode="&#x1f361;" 
 />
    <glyph glyph-name="u1f362" unicode="&#x1f362;" 
 />
    <glyph glyph-name="u1f363" unicode="&#x1f363;" 
 />
    <glyph glyph-name="u1f364" unicode="&#x1f364;" 
 />
    <glyph glyph-name="u1f365" unicode="&#x1f365;" 
 />
    <glyph glyph-name="u1f366" unicode="&#x1f366;" 
 />
    <glyph glyph-name="u1f367" unicode="&#x1f367;" 
 />
    <glyph glyph-name="u1f368" unicode="&#x1f368;" 
 />
    <glyph glyph-name="u1f369" unicode="&#x1f369;" 
 />
    <glyph glyph-name="u1f36a" unicode="&#x1f36a;" 
 />
    <glyph glyph-name="u1f36b" unicode="&#x1f36b;" 
 />
    <glyph glyph-name="u1f36c" unicode="&#x1f36c;" 
 />
    <glyph glyph-name="u1f36d" unicode="&#x1f36d;" 
 />
    <glyph glyph-name="u1f36e" unicode="&#x1f36e;" 
 />
    <glyph glyph-name="u1f36f" unicode="&#x1f36f;" 
 />
    <glyph glyph-name="u1f370" unicode="&#x1f370;" 
 />
    <glyph glyph-name="u1f371" unicode="&#x1f371;" 
 />
    <glyph glyph-name="u1f372" unicode="&#x1f372;" 
 />
    <glyph glyph-name="u1f373" unicode="&#x1f373;" 
 />
    <glyph glyph-name="u1f374" unicode="&#x1f374;" 
 />
    <glyph glyph-name="u1f375" unicode="&#x1f375;" 
 />
    <glyph glyph-name="u1f376" unicode="&#x1f376;" 
 />
    <glyph glyph-name="u1f377" unicode="&#x1f377;" 
 />
    <glyph glyph-name="u1f378" unicode="&#x1f378;" 
 />
    <glyph glyph-name="u1f379" unicode="&#x1f379;" 
 />
    <glyph glyph-name="u1f37a" unicode="&#x1f37a;" 
 />
    <glyph glyph-name="u1f37b" unicode="&#x1f37b;" 
 />
    <glyph glyph-name="u1f37c" unicode="&#x1f37c;" 
 />
    <glyph glyph-name="u1f37d" unicode="&#x1f37d;" 
 />
    <glyph glyph-name="u1f37e" unicode="&#x1f37e;" 
 />
    <glyph glyph-name="u1f37f" unicode="&#x1f37f;" 
 />
    <glyph glyph-name="u1f380" unicode="&#x1f380;" 
 />
    <glyph glyph-name="u1f381" unicode="&#x1f381;" 
 />
    <glyph glyph-name="u1f382" unicode="&#x1f382;" 
 />
    <glyph glyph-name="u1f383" unicode="&#x1f383;" 
 />
    <glyph glyph-name="u1f384" unicode="&#x1f384;" 
 />
    <glyph glyph-name="u1f385" unicode="&#x1f385;" 
 />
    <glyph glyph-name="u1f386" unicode="&#x1f386;" 
 />
    <glyph glyph-name="u1f387" unicode="&#x1f387;" 
 />
    <glyph glyph-name="u1f388" unicode="&#x1f388;" 
 />
    <glyph glyph-name="u1f389" unicode="&#x1f389;" 
 />
    <glyph glyph-name="u1f38a" unicode="&#x1f38a;" 
 />
    <glyph glyph-name="u1f38b" unicode="&#x1f38b;" 
 />
    <glyph glyph-name="u1f38c" unicode="&#x1f38c;" 
 />
    <glyph glyph-name="u1f38d" unicode="&#x1f38d;" 
 />
    <glyph glyph-name="u1f38e" unicode="&#x1f38e;" 
 />
    <glyph glyph-name="u1f38f" unicode="&#x1f38f;" 
 />
    <glyph glyph-name="u1f390" unicode="&#x1f390;" 
 />
    <glyph glyph-name="u1f391" unicode="&#x1f391;" 
 />
    <glyph glyph-name="u1f392" unicode="&#x1f392;" 
 />
    <glyph glyph-name="u1f393" unicode="&#x1f393;" 
 />
    <glyph glyph-name="u1f396" unicode="&#x1f396;" 
 />
    <glyph glyph-name="u1f397" unicode="&#x1f397;" 
 />
    <glyph glyph-name="u1f399" unicode="&#x1f399;" 
 />
    <glyph glyph-name="u1f39a" unicode="&#x1f39a;" 
 />
    <glyph glyph-name="u1f39b" unicode="&#x1f39b;" 
 />
    <glyph glyph-name="u1f39e" unicode="&#x1f39e;" 
 />
    <glyph glyph-name="u1f39f" unicode="&#x1f39f;" 
 />
    <glyph glyph-name="u1f3a0" unicode="&#x1f3a0;" 
 />
    <glyph glyph-name="u1f3a1" unicode="&#x1f3a1;" 
 />
    <glyph glyph-name="u1f3a2" unicode="&#x1f3a2;" 
 />
    <glyph glyph-name="u1f3a3" unicode="&#x1f3a3;" 
 />
    <glyph glyph-name="u1f3a4" unicode="&#x1f3a4;" 
 />
    <glyph glyph-name="u1f3a5" unicode="&#x1f3a5;" 
 />
    <glyph glyph-name="u1f3a6" unicode="&#x1f3a6;" 
 />
    <glyph glyph-name="u1f3a7" unicode="&#x1f3a7;" 
 />
    <glyph glyph-name="u1f3a8" unicode="&#x1f3a8;" 
 />
    <glyph glyph-name="u1f3a9" unicode="&#x1f3a9;" 
 />
    <glyph glyph-name="u1f3aa" unicode="&#x1f3aa;" 
 />
    <glyph glyph-name="u1f3ab" unicode="&#x1f3ab;" 
 />
    <glyph glyph-name="u1f3ac" unicode="&#x1f3ac;" 
 />
    <glyph glyph-name="u1f3ad" unicode="&#x1f3ad;" 
 />
    <glyph glyph-name="u1f3ae" unicode="&#x1f3ae;" 
 />
    <glyph glyph-name="u1f3af" unicode="&#x1f3af;" 
 />
    <glyph glyph-name="u1f3b0" unicode="&#x1f3b0;" 
 />
    <glyph glyph-name="u1f3b1" unicode="&#x1f3b1;" 
 />
    <glyph glyph-name="u1f3b2" unicode="&#x1f3b2;" 
 />
    <glyph glyph-name="u1f3b3" unicode="&#x1f3b3;" 
 />
    <glyph glyph-name="u1f3b4" unicode="&#x1f3b4;" 
 />
    <glyph glyph-name="u1f3b5" unicode="&#x1f3b5;" 
 />
    <glyph glyph-name="u1f3b6" unicode="&#x1f3b6;" 
 />
    <glyph glyph-name="u1f3b7" unicode="&#x1f3b7;" 
 />
    <glyph glyph-name="u1f3b8" unicode="&#x1f3b8;" 
 />
    <glyph glyph-name="u1f3b9" unicode="&#x1f3b9;" 
 />
    <glyph glyph-name="u1f3ba" unicode="&#x1f3ba;" 
 />
    <glyph glyph-name="u1f3bb" unicode="&#x1f3bb;" 
 />
    <glyph glyph-name="u1f3bc" unicode="&#x1f3bc;" 
 />
    <glyph glyph-name="u1f3bd" unicode="&#x1f3bd;" 
 />
    <glyph glyph-name="u1f3be" unicode="&#x1f3be;" 
 />
    <glyph glyph-name="u1f3bf" unicode="&#x1f3bf;" 
 />
    <glyph glyph-name="u1f3c0" unicode="&#x1f3c0;" 
 />
    <glyph glyph-name="u1f3c1" unicode="&#x1f3c1;" 
 />
    <glyph glyph-name="u1f3c2" unicode="&#x1f3c2;" 
 />
    <glyph glyph-name="u1f3c3" unicode="&#x1f3c3;" 
 />
    <glyph glyph-name="u1f3c4" unicode="&#x1f3c4;" 
 />
    <glyph glyph-name="u1f3c5" unicode="&#x1f3c5;" 
 />
    <glyph glyph-name="u1f3c6" unicode="&#x1f3c6;" 
 />
    <glyph glyph-name="u1f3c7" unicode="&#x1f3c7;" 
 />
    <glyph glyph-name="u1f3c8" unicode="&#x1f3c8;" 
 />
    <glyph glyph-name="u1f3c9" unicode="&#x1f3c9;" 
 />
    <glyph glyph-name="u1f3ca" unicode="&#x1f3ca;" 
 />
    <glyph glyph-name="u1f3cb" unicode="&#x1f3cb;" 
 />
    <glyph glyph-name="u1f3cc" unicode="&#x1f3cc;" 
 />
    <glyph glyph-name="u1f3cd" unicode="&#x1f3cd;" 
 />
    <glyph glyph-name="u1f3ce" unicode="&#x1f3ce;" 
 />
    <glyph glyph-name="u1f3cf" unicode="&#x1f3cf;" 
 />
    <glyph glyph-name="u1f3d0" unicode="&#x1f3d0;" 
 />
    <glyph glyph-name="u1f3d1" unicode="&#x1f3d1;" 
 />
    <glyph glyph-name="u1f3d2" unicode="&#x1f3d2;" 
 />
    <glyph glyph-name="u1f3d3" unicode="&#x1f3d3;" 
 />
    <glyph glyph-name="u1f3d4" unicode="&#x1f3d4;" 
 />
    <glyph glyph-name="u1f3d5" unicode="&#x1f3d5;" 
 />
    <glyph glyph-name="u1f3d6" unicode="&#x1f3d6;" 
 />
    <glyph glyph-name="u1f3d7" unicode="&#x1f3d7;" 
 />
    <glyph glyph-name="u1f3d8" unicode="&#x1f3d8;" 
 />
    <glyph glyph-name="u1f3d9" unicode="&#x1f3d9;" 
 />
    <glyph glyph-name="u1f3da" unicode="&#x1f3da;" 
 />
    <glyph glyph-name="u1f3db" unicode="&#x1f3db;" 
 />
    <glyph glyph-name="u1f3dc" unicode="&#x1f3dc;" 
 />
    <glyph glyph-name="u1f3dd" unicode="&#x1f3dd;" 
 />
    <glyph glyph-name="u1f3de" unicode="&#x1f3de;" 
 />
    <glyph glyph-name="u1f3df" unicode="&#x1f3df;" 
 />
    <glyph glyph-name="u1f3e0" unicode="&#x1f3e0;" 
 />
    <glyph glyph-name="u1f3e1" unicode="&#x1f3e1;" 
 />
    <glyph glyph-name="u1f3e2" unicode="&#x1f3e2;" 
 />
    <glyph glyph-name="u1f3e3" unicode="&#x1f3e3;" 
 />
    <glyph glyph-name="u1f3e4" unicode="&#x1f3e4;" 
 />
    <glyph glyph-name="u1f3e5" unicode="&#x1f3e5;" 
 />
    <glyph glyph-name="u1f3e6" unicode="&#x1f3e6;" 
 />
    <glyph glyph-name="u1f3e7" unicode="&#x1f3e7;" 
 />
    <glyph glyph-name="u1f3e8" unicode="&#x1f3e8;" 
 />
    <glyph glyph-name="u1f3e9" unicode="&#x1f3e9;" 
 />
    <glyph glyph-name="u1f3ea" unicode="&#x1f3ea;" 
 />
    <glyph glyph-name="u1f3eb" unicode="&#x1f3eb;" 
 />
    <glyph glyph-name="u1f3ec" unicode="&#x1f3ec;" 
 />
    <glyph glyph-name="u1f3ed" unicode="&#x1f3ed;" 
 />
    <glyph glyph-name="u1f3ee" unicode="&#x1f3ee;" 
 />
    <glyph glyph-name="u1f3ef" unicode="&#x1f3ef;" 
 />
    <glyph glyph-name="u1f3f0" unicode="&#x1f3f0;" 
 />
    <glyph glyph-name="u1f3f3" unicode="&#x1f3f3;" 
 />
    <glyph glyph-name="u1f3f4" unicode="&#x1f3f4;" 
 />
    <glyph glyph-name="u1f3f5" unicode="&#x1f3f5;" 
 />
    <glyph glyph-name="u1f3f7" unicode="&#x1f3f7;" 
 />
    <glyph glyph-name="u1f3f8" unicode="&#x1f3f8;" 
 />
    <glyph glyph-name="u1f3f9" unicode="&#x1f3f9;" 
 />
    <glyph glyph-name="u1f3fa" unicode="&#x1f3fa;" 
 />
    <glyph glyph-name="u1f3fb" unicode="&#x1f3fb;" 
 />
    <glyph glyph-name="u1f3fc" unicode="&#x1f3fc;" 
 />
    <glyph glyph-name="u1f3fd" unicode="&#x1f3fd;" 
 />
    <glyph glyph-name="u1f3fe" unicode="&#x1f3fe;" 
 />
    <glyph glyph-name="u1f3ff" unicode="&#x1f3ff;" 
 />
    <glyph glyph-name="u1f400" unicode="&#x1f400;" 
 />
    <glyph glyph-name="u1f401" unicode="&#x1f401;" 
 />
    <glyph glyph-name="u1f402" unicode="&#x1f402;" 
 />
    <glyph glyph-name="u1f403" unicode="&#x1f403;" 
 />
    <glyph glyph-name="u1f404" unicode="&#x1f404;" 
 />
    <glyph glyph-name="u1f405" unicode="&#x1f405;" 
 />
    <glyph glyph-name="u1f406" unicode="&#x1f406;" 
 />
    <glyph glyph-name="u1f407" unicode="&#x1f407;" 
 />
    <glyph glyph-name="u1f408" unicode="&#x1f408;" 
 />
    <glyph glyph-name="u1f409" unicode="&#x1f409;" 
 />
    <glyph glyph-name="u1f40a" unicode="&#x1f40a;" 
 />
    <glyph glyph-name="u1f40b" unicode="&#x1f40b;" 
 />
    <glyph glyph-name="u1f40c" unicode="&#x1f40c;" 
 />
    <glyph glyph-name="u1f40d" unicode="&#x1f40d;" 
 />
    <glyph glyph-name="u1f40e" unicode="&#x1f40e;" 
 />
    <glyph glyph-name="u1f40f" unicode="&#x1f40f;" 
 />
    <glyph glyph-name="u1f410" unicode="&#x1f410;" 
 />
    <glyph glyph-name="u1f411" unicode="&#x1f411;" 
 />
    <glyph glyph-name="u1f412" unicode="&#x1f412;" 
 />
    <glyph glyph-name="u1f413" unicode="&#x1f413;" 
 />
    <glyph glyph-name="u1f414" unicode="&#x1f414;" 
 />
    <glyph glyph-name="u1f415" unicode="&#x1f415;" 
 />
    <glyph glyph-name="u1f416" unicode="&#x1f416;" 
 />
    <glyph glyph-name="u1f417" unicode="&#x1f417;" 
 />
    <glyph glyph-name="u1f418" unicode="&#x1f418;" 
 />
    <glyph glyph-name="u1f419" unicode="&#x1f419;" 
 />
    <glyph glyph-name="u1f41a" unicode="&#x1f41a;" 
 />
    <glyph glyph-name="u1f41b" unicode="&#x1f41b;" 
 />
    <glyph glyph-name="u1f41c" unicode="&#x1f41c;" 
 />
    <glyph glyph-name="u1f41d" unicode="&#x1f41d;" 
 />
    <glyph glyph-name="u1f41e" unicode="&#x1f41e;" 
 />
    <glyph glyph-name="u1f41f" unicode="&#x1f41f;" 
 />
    <glyph glyph-name="u1f420" unicode="&#x1f420;" 
 />
    <glyph glyph-name="u1f421" unicode="&#x1f421;" 
 />
    <glyph glyph-name="u1f422" unicode="&#x1f422;" 
 />
    <glyph glyph-name="u1f423" unicode="&#x1f423;" 
 />
    <glyph glyph-name="u1f424" unicode="&#x1f424;" 
 />
    <glyph glyph-name="u1f425" unicode="&#x1f425;" 
 />
    <glyph glyph-name="u1f426" unicode="&#x1f426;" 
 />
    <glyph glyph-name="u1f427" unicode="&#x1f427;" 
 />
    <glyph glyph-name="u1f428" unicode="&#x1f428;" 
 />
    <glyph glyph-name="u1f429" unicode="&#x1f429;" 
 />
    <glyph glyph-name="u1f42a" unicode="&#x1f42a;" 
 />
    <glyph glyph-name="u1f42b" unicode="&#x1f42b;" 
 />
    <glyph glyph-name="u1f42c" unicode="&#x1f42c;" 
 />
    <glyph glyph-name="u1f42d" unicode="&#x1f42d;" 
 />
    <glyph glyph-name="u1f42e" unicode="&#x1f42e;" 
 />
    <glyph glyph-name="u1f42f" unicode="&#x1f42f;" 
 />
    <glyph glyph-name="u1f430" unicode="&#x1f430;" 
 />
    <glyph glyph-name="u1f431" unicode="&#x1f431;" 
 />
    <glyph glyph-name="u1f432" unicode="&#x1f432;" 
 />
    <glyph glyph-name="u1f433" unicode="&#x1f433;" 
 />
    <glyph glyph-name="u1f434" unicode="&#x1f434;" 
 />
    <glyph glyph-name="u1f435" unicode="&#x1f435;" 
 />
    <glyph glyph-name="u1f436" unicode="&#x1f436;" 
 />
    <glyph glyph-name="u1f437" unicode="&#x1f437;" 
 />
    <glyph glyph-name="u1f438" unicode="&#x1f438;" 
 />
    <glyph glyph-name="u1f439" unicode="&#x1f439;" 
 />
    <glyph glyph-name="u1f43a" unicode="&#x1f43a;" 
 />
    <glyph glyph-name="u1f43b" unicode="&#x1f43b;" 
 />
    <glyph glyph-name="u1f43c" unicode="&#x1f43c;" 
 />
    <glyph glyph-name="u1f43d" unicode="&#x1f43d;" 
 />
    <glyph glyph-name="u1f43e" unicode="&#x1f43e;" 
 />
    <glyph glyph-name="u1f43f" unicode="&#x1f43f;" 
 />
    <glyph glyph-name="u1f440" unicode="&#x1f440;" 
 />
    <glyph glyph-name="u1f441" unicode="&#x1f441;" 
 />
    <glyph glyph-name="u1f442" unicode="&#x1f442;" 
 />
    <glyph glyph-name="u1f443" unicode="&#x1f443;" 
 />
    <glyph glyph-name="u1f444" unicode="&#x1f444;" 
 />
    <glyph glyph-name="u1f445" unicode="&#x1f445;" 
 />
    <glyph glyph-name="u1f446" unicode="&#x1f446;" 
 />
    <glyph glyph-name="u1f447" unicode="&#x1f447;" 
 />
    <glyph glyph-name="u1f448" unicode="&#x1f448;" 
 />
    <glyph glyph-name="u1f449" unicode="&#x1f449;" 
 />
    <glyph glyph-name="u1f44a" unicode="&#x1f44a;" 
 />
    <glyph glyph-name="u1f44b" unicode="&#x1f44b;" 
 />
    <glyph glyph-name="u1f44c" unicode="&#x1f44c;" 
 />
    <glyph glyph-name="u1f44d" unicode="&#x1f44d;" 
 />
    <glyph glyph-name="u1f44e" unicode="&#x1f44e;" 
 />
    <glyph glyph-name="u1f44f" unicode="&#x1f44f;" 
 />
    <glyph glyph-name="u1f450" unicode="&#x1f450;" 
 />
    <glyph glyph-name="u1f451" unicode="&#x1f451;" 
 />
    <glyph glyph-name="u1f452" unicode="&#x1f452;" 
 />
    <glyph glyph-name="u1f453" unicode="&#x1f453;" 
 />
    <glyph glyph-name="u1f454" unicode="&#x1f454;" 
 />
    <glyph glyph-name="u1f455" unicode="&#x1f455;" 
 />
    <glyph glyph-name="u1f456" unicode="&#x1f456;" 
 />
    <glyph glyph-name="u1f457" unicode="&#x1f457;" 
 />
    <glyph glyph-name="u1f458" unicode="&#x1f458;" 
 />
    <glyph glyph-name="u1f459" unicode="&#x1f459;" 
 />
    <glyph glyph-name="u1f45a" unicode="&#x1f45a;" 
 />
    <glyph glyph-name="u1f45b" unicode="&#x1f45b;" 
 />
    <glyph glyph-name="u1f45c" unicode="&#x1f45c;" 
 />
    <glyph glyph-name="u1f45d" unicode="&#x1f45d;" 
 />
    <glyph glyph-name="u1f45e" unicode="&#x1f45e;" 
 />
    <glyph glyph-name="u1f45f" unicode="&#x1f45f;" 
 />
    <glyph glyph-name="u1f460" unicode="&#x1f460;" 
 />
    <glyph glyph-name="u1f461" unicode="&#x1f461;" 
 />
    <glyph glyph-name="u1f462" unicode="&#x1f462;" 
 />
    <glyph glyph-name="u1f463" unicode="&#x1f463;" 
 />
    <glyph glyph-name="u1f464" unicode="&#x1f464;" 
 />
    <glyph glyph-name="u1f465" unicode="&#x1f465;" 
 />
    <glyph glyph-name="u1f466" unicode="&#x1f466;" 
 />
    <glyph glyph-name="u1f467" unicode="&#x1f467;" 
 />
    <glyph glyph-name="u1f468" unicode="&#x1f468;" 
 />
    <glyph glyph-name="u1f469" unicode="&#x1f469;" 
 />
    <glyph glyph-name="u1f46a" unicode="&#x1f46a;" 
 />
    <glyph glyph-name="u1f46b" unicode="&#x1f46b;" 
 />
    <glyph glyph-name="u1f46c" unicode="&#x1f46c;" 
 />
    <glyph glyph-name="u1f46d" unicode="&#x1f46d;" 
 />
    <glyph glyph-name="u1f46e" unicode="&#x1f46e;" 
 />
    <glyph glyph-name="u1f46f" unicode="&#x1f46f;" 
 />
    <glyph glyph-name="u1f470" unicode="&#x1f470;" 
 />
    <glyph glyph-name="u1f471" unicode="&#x1f471;" 
 />
    <glyph glyph-name="u1f472" unicode="&#x1f472;" 
 />
    <glyph glyph-name="u1f473" unicode="&#x1f473;" 
 />
    <glyph glyph-name="u1f474" unicode="&#x1f474;" 
 />
    <glyph glyph-name="u1f475" unicode="&#x1f475;" 
 />
    <glyph glyph-name="u1f476" unicode="&#x1f476;" 
 />
    <glyph glyph-name="u1f477" unicode="&#x1f477;" 
 />
    <glyph glyph-name="u1f478" unicode="&#x1f478;" 
 />
    <glyph glyph-name="u1f479" unicode="&#x1f479;" 
 />
    <glyph glyph-name="u1f47a" unicode="&#x1f47a;" 
 />
    <glyph glyph-name="u1f47b" unicode="&#x1f47b;" 
 />
    <glyph glyph-name="u1f47c" unicode="&#x1f47c;" 
 />
    <glyph glyph-name="u1f47d" unicode="&#x1f47d;" 
 />
    <glyph glyph-name="u1f47e" unicode="&#x1f47e;" 
 />
    <glyph glyph-name="u1f47f" unicode="&#x1f47f;" 
 />
    <glyph glyph-name="u1f480" unicode="&#x1f480;" 
 />
    <glyph glyph-name="u1f481" unicode="&#x1f481;" 
 />
    <glyph glyph-name="u1f482" unicode="&#x1f482;" 
 />
    <glyph glyph-name="u1f483" unicode="&#x1f483;" 
 />
    <glyph glyph-name="u1f484" unicode="&#x1f484;" 
 />
    <glyph glyph-name="u1f485" unicode="&#x1f485;" 
 />
    <glyph glyph-name="u1f486" unicode="&#x1f486;" 
 />
    <glyph glyph-name="u1f487" unicode="&#x1f487;" 
 />
    <glyph glyph-name="u1f488" unicode="&#x1f488;" 
 />
    <glyph glyph-name="u1f489" unicode="&#x1f489;" 
 />
    <glyph glyph-name="u1f48a" unicode="&#x1f48a;" 
 />
    <glyph glyph-name="u1f48b" unicode="&#x1f48b;" 
 />
    <glyph glyph-name="u1f48c" unicode="&#x1f48c;" 
 />
    <glyph glyph-name="u1f48d" unicode="&#x1f48d;" 
 />
    <glyph glyph-name="u1f48e" unicode="&#x1f48e;" 
 />
    <glyph glyph-name="u1f48f" unicode="&#x1f48f;" 
 />
    <glyph glyph-name="u1f490" unicode="&#x1f490;" 
 />
    <glyph glyph-name="u1f491" unicode="&#x1f491;" 
 />
    <glyph glyph-name="u1f492" unicode="&#x1f492;" 
 />
    <glyph glyph-name="u1f493" unicode="&#x1f493;" 
 />
    <glyph glyph-name="u1f494" unicode="&#x1f494;" 
 />
    <glyph glyph-name="u1f495" unicode="&#x1f495;" 
 />
    <glyph glyph-name="u1f496" unicode="&#x1f496;" 
 />
    <glyph glyph-name="u1f497" unicode="&#x1f497;" 
 />
    <glyph glyph-name="u1f498" unicode="&#x1f498;" 
 />
    <glyph glyph-name="u1f499" unicode="&#x1f499;" 
 />
    <glyph glyph-name="u1f49a" unicode="&#x1f49a;" 
 />
    <glyph glyph-name="u1f49b" unicode="&#x1f49b;" 
 />
    <glyph glyph-name="u1f49c" unicode="&#x1f49c;" 
 />
    <glyph glyph-name="u1f49d" unicode="&#x1f49d;" 
 />
    <glyph glyph-name="u1f49e" unicode="&#x1f49e;" 
 />
    <glyph glyph-name="u1f49f" unicode="&#x1f49f;" 
 />
    <glyph glyph-name="u1f4a0" unicode="&#x1f4a0;" 
 />
    <glyph glyph-name="u1f4a1" unicode="&#x1f4a1;" 
 />
    <glyph glyph-name="u1f4a2" unicode="&#x1f4a2;" 
 />
    <glyph glyph-name="u1f4a3" unicode="&#x1f4a3;" 
 />
    <glyph glyph-name="u1f4a4" unicode="&#x1f4a4;" 
 />
    <glyph glyph-name="u1f4a5" unicode="&#x1f4a5;" 
 />
    <glyph glyph-name="u1f4a6" unicode="&#x1f4a6;" 
 />
    <glyph glyph-name="u1f4a7" unicode="&#x1f4a7;" 
 />
    <glyph glyph-name="u1f4a8" unicode="&#x1f4a8;" 
 />
    <glyph glyph-name="u1f4a9" unicode="&#x1f4a9;" 
 />
    <glyph glyph-name="u1f4aa" unicode="&#x1f4aa;" 
 />
    <glyph glyph-name="u1f4ab" unicode="&#x1f4ab;" 
 />
    <glyph glyph-name="u1f4ac" unicode="&#x1f4ac;" 
 />
    <glyph glyph-name="u1f4ad" unicode="&#x1f4ad;" 
 />
    <glyph glyph-name="u1f4ae" unicode="&#x1f4ae;" 
 />
    <glyph glyph-name="u1f4af" unicode="&#x1f4af;" 
 />
    <glyph glyph-name="u1f4b0" unicode="&#x1f4b0;" 
 />
    <glyph glyph-name="u1f4b1" unicode="&#x1f4b1;" 
 />
    <glyph glyph-name="u1f4b2" unicode="&#x1f4b2;" 
 />
    <glyph glyph-name="u1f4b3" unicode="&#x1f4b3;" 
 />
    <glyph glyph-name="u1f4b4" unicode="&#x1f4b4;" 
 />
    <glyph glyph-name="u1f4b5" unicode="&#x1f4b5;" 
 />
    <glyph glyph-name="u1f4b6" unicode="&#x1f4b6;" 
 />
    <glyph glyph-name="u1f4b7" unicode="&#x1f4b7;" 
 />
    <glyph glyph-name="u1f4b8" unicode="&#x1f4b8;" 
 />
    <glyph glyph-name="u1f4b9" unicode="&#x1f4b9;" 
 />
    <glyph glyph-name="u1f4ba" unicode="&#x1f4ba;" 
 />
    <glyph glyph-name="u1f4bb" unicode="&#x1f4bb;" 
 />
    <glyph glyph-name="u1f4bc" unicode="&#x1f4bc;" 
 />
    <glyph glyph-name="u1f4bd" unicode="&#x1f4bd;" 
 />
    <glyph glyph-name="u1f4be" unicode="&#x1f4be;" 
 />
    <glyph glyph-name="u1f4bf" unicode="&#x1f4bf;" 
 />
    <glyph glyph-name="u1f4c0" unicode="&#x1f4c0;" 
 />
    <glyph glyph-name="u1f4c1" unicode="&#x1f4c1;" 
 />
    <glyph glyph-name="u1f4c2" unicode="&#x1f4c2;" 
 />
    <glyph glyph-name="u1f4c3" unicode="&#x1f4c3;" 
 />
    <glyph glyph-name="u1f4c4" unicode="&#x1f4c4;" 
 />
    <glyph glyph-name="u1f4c5" unicode="&#x1f4c5;" 
 />
    <glyph glyph-name="u1f4c6" unicode="&#x1f4c6;" 
 />
    <glyph glyph-name="u1f4c7" unicode="&#x1f4c7;" 
 />
    <glyph glyph-name="u1f4c8" unicode="&#x1f4c8;" 
 />
    <glyph glyph-name="u1f4c9" unicode="&#x1f4c9;" 
 />
    <glyph glyph-name="u1f4ca" unicode="&#x1f4ca;" 
 />
    <glyph glyph-name="u1f4cb" unicode="&#x1f4cb;" 
 />
    <glyph glyph-name="u1f4cc" unicode="&#x1f4cc;" 
 />
    <glyph glyph-name="u1f4cd" unicode="&#x1f4cd;" 
 />
    <glyph glyph-name="u1f4ce" unicode="&#x1f4ce;" 
 />
    <glyph glyph-name="u1f4cf" unicode="&#x1f4cf;" 
 />
    <glyph glyph-name="u1f4d0" unicode="&#x1f4d0;" 
 />
    <glyph glyph-name="u1f4d1" unicode="&#x1f4d1;" 
 />
    <glyph glyph-name="u1f4d2" unicode="&#x1f4d2;" 
 />
    <glyph glyph-name="u1f4d3" unicode="&#x1f4d3;" 
 />
    <glyph glyph-name="u1f4d4" unicode="&#x1f4d4;" 
 />
    <glyph glyph-name="u1f4d5" unicode="&#x1f4d5;" 
 />
    <glyph glyph-name="u1f4d6" unicode="&#x1f4d6;" 
 />
    <glyph glyph-name="u1f4d7" unicode="&#x1f4d7;" 
 />
    <glyph glyph-name="u1f4d8" unicode="&#x1f4d8;" 
 />
    <glyph glyph-name="u1f4d9" unicode="&#x1f4d9;" 
 />
    <glyph glyph-name="u1f4da" unicode="&#x1f4da;" 
 />
    <glyph glyph-name="u1f4db" unicode="&#x1f4db;" 
 />
    <glyph glyph-name="u1f4dc" unicode="&#x1f4dc;" 
 />
    <glyph glyph-name="u1f4dd" unicode="&#x1f4dd;" 
 />
    <glyph glyph-name="u1f4de" unicode="&#x1f4de;" 
 />
    <glyph glyph-name="u1f4df" unicode="&#x1f4df;" 
 />
    <glyph glyph-name="u1f4e0" unicode="&#x1f4e0;" 
 />
    <glyph glyph-name="u1f4e1" unicode="&#x1f4e1;" 
 />
    <glyph glyph-name="u1f4e2" unicode="&#x1f4e2;" 
 />
    <glyph glyph-name="u1f4e3" unicode="&#x1f4e3;" 
 />
    <glyph glyph-name="u1f4e4" unicode="&#x1f4e4;" 
 />
    <glyph glyph-name="u1f4e5" unicode="&#x1f4e5;" 
 />
    <glyph glyph-name="u1f4e6" unicode="&#x1f4e6;" 
 />
    <glyph glyph-name="u1f4e7" unicode="&#x1f4e7;" 
 />
    <glyph glyph-name="u1f4e8" unicode="&#x1f4e8;" 
 />
    <glyph glyph-name="u1f4e9" unicode="&#x1f4e9;" 
 />
    <glyph glyph-name="u1f4ea" unicode="&#x1f4ea;" 
 />
    <glyph glyph-name="u1f4eb" unicode="&#x1f4eb;" 
 />
    <glyph glyph-name="u1f4ec" unicode="&#x1f4ec;" 
 />
    <glyph glyph-name="u1f4ed" unicode="&#x1f4ed;" 
 />
    <glyph glyph-name="u1f4ee" unicode="&#x1f4ee;" 
 />
    <glyph glyph-name="u1f4ef" unicode="&#x1f4ef;" 
 />
    <glyph glyph-name="u1f4f0" unicode="&#x1f4f0;" 
 />
    <glyph glyph-name="u1f4f1" unicode="&#x1f4f1;" 
 />
    <glyph glyph-name="u1f4f2" unicode="&#x1f4f2;" 
 />
    <glyph glyph-name="u1f4f3" unicode="&#x1f4f3;" 
 />
    <glyph glyph-name="u1f4f4" unicode="&#x1f4f4;" 
 />
    <glyph glyph-name="u1f4f5" unicode="&#x1f4f5;" 
 />
    <glyph glyph-name="u1f4f6" unicode="&#x1f4f6;" 
 />
    <glyph glyph-name="u1f4f7" unicode="&#x1f4f7;" 
 />
    <glyph glyph-name="u1f4f8" unicode="&#x1f4f8;" 
 />
    <glyph glyph-name="u1f4f9" unicode="&#x1f4f9;" 
 />
    <glyph glyph-name="u1f4fa" unicode="&#x1f4fa;" 
 />
    <glyph glyph-name="u1f4fb" unicode="&#x1f4fb;" 
 />
    <glyph glyph-name="u1f4fc" unicode="&#x1f4fc;" 
 />
    <glyph glyph-name="u1f4fd" unicode="&#x1f4fd;" 
 />
    <glyph glyph-name="u1f4ff" unicode="&#x1f4ff;" 
 />
    <glyph glyph-name="u1f500" unicode="&#x1f500;" 
 />
    <glyph glyph-name="u1f501" unicode="&#x1f501;" 
 />
    <glyph glyph-name="u1f502" unicode="&#x1f502;" 
 />
    <glyph glyph-name="u1f503" unicode="&#x1f503;" 
 />
    <glyph glyph-name="u1f504" unicode="&#x1f504;" 
 />
    <glyph glyph-name="u1f505" unicode="&#x1f505;" 
 />
    <glyph glyph-name="u1f506" unicode="&#x1f506;" 
 />
    <glyph glyph-name="u1f507" unicode="&#x1f507;" 
 />
    <glyph glyph-name="u1f508" unicode="&#x1f508;" 
 />
    <glyph glyph-name="u1f509" unicode="&#x1f509;" 
 />
    <glyph glyph-name="u1f50a" unicode="&#x1f50a;" 
 />
    <glyph glyph-name="u1f50b" unicode="&#x1f50b;" 
 />
    <glyph glyph-name="u1f50c" unicode="&#x1f50c;" 
 />
    <glyph glyph-name="u1f50d" unicode="&#x1f50d;" 
 />
    <glyph glyph-name="u1f50e" unicode="&#x1f50e;" 
 />
    <glyph glyph-name="u1f50f" unicode="&#x1f50f;" 
 />
    <glyph glyph-name="u1f510" unicode="&#x1f510;" 
 />
    <glyph glyph-name="u1f511" unicode="&#x1f511;" 
 />
    <glyph glyph-name="u1f512" unicode="&#x1f512;" 
 />
    <glyph glyph-name="u1f513" unicode="&#x1f513;" 
 />
    <glyph glyph-name="u1f514" unicode="&#x1f514;" 
 />
    <glyph glyph-name="u1f515" unicode="&#x1f515;" 
 />
    <glyph glyph-name="u1f516" unicode="&#x1f516;" 
 />
    <glyph glyph-name="u1f517" unicode="&#x1f517;" 
 />
    <glyph glyph-name="u1f518" unicode="&#x1f518;" 
 />
    <glyph glyph-name="u1f519" unicode="&#x1f519;" 
 />
    <glyph glyph-name="u1f51a" unicode="&#x1f51a;" 
 />
    <glyph glyph-name="u1f51b" unicode="&#x1f51b;" 
 />
    <glyph glyph-name="u1f51c" unicode="&#x1f51c;" 
 />
    <glyph glyph-name="u1f51d" unicode="&#x1f51d;" 
 />
    <glyph glyph-name="u1f51e" unicode="&#x1f51e;" 
 />
    <glyph glyph-name="u1f51f" unicode="&#x1f51f;" 
 />
    <glyph glyph-name="u1f520" unicode="&#x1f520;" 
 />
    <glyph glyph-name="u1f521" unicode="&#x1f521;" 
 />
    <glyph glyph-name="u1f522" unicode="&#x1f522;" 
 />
    <glyph glyph-name="u1f523" unicode="&#x1f523;" 
 />
    <glyph glyph-name="u1f524" unicode="&#x1f524;" 
 />
    <glyph glyph-name="u1f525" unicode="&#x1f525;" 
 />
    <glyph glyph-name="u1f526" unicode="&#x1f526;" 
 />
    <glyph glyph-name="u1f527" unicode="&#x1f527;" 
 />
    <glyph glyph-name="u1f528" unicode="&#x1f528;" 
 />
    <glyph glyph-name="u1f529" unicode="&#x1f529;" 
 />
    <glyph glyph-name="u1f52a" unicode="&#x1f52a;" 
 />
    <glyph glyph-name="u1f52b" unicode="&#x1f52b;" 
 />
    <glyph glyph-name="u1f52c" unicode="&#x1f52c;" 
 />
    <glyph glyph-name="u1f52d" unicode="&#x1f52d;" 
 />
    <glyph glyph-name="u1f52e" unicode="&#x1f52e;" 
 />
    <glyph glyph-name="u1f52f" unicode="&#x1f52f;" 
 />
    <glyph glyph-name="u1f530" unicode="&#x1f530;" 
 />
    <glyph glyph-name="u1f531" unicode="&#x1f531;" 
 />
    <glyph glyph-name="u1f532" unicode="&#x1f532;" 
 />
    <glyph glyph-name="u1f533" unicode="&#x1f533;" 
 />
    <glyph glyph-name="u1f534" unicode="&#x1f534;" 
 />
    <glyph glyph-name="u1f535" unicode="&#x1f535;" 
 />
    <glyph glyph-name="u1f536" unicode="&#x1f536;" 
 />
    <glyph glyph-name="u1f537" unicode="&#x1f537;" 
 />
    <glyph glyph-name="u1f538" unicode="&#x1f538;" 
 />
    <glyph glyph-name="u1f539" unicode="&#x1f539;" 
 />
    <glyph glyph-name="u1f53a" unicode="&#x1f53a;" 
 />
    <glyph glyph-name="u1f53b" unicode="&#x1f53b;" 
 />
    <glyph glyph-name="u1f53c" unicode="&#x1f53c;" 
 />
    <glyph glyph-name="u1f53d" unicode="&#x1f53d;" 
 />
    <glyph glyph-name="u1f549" unicode="&#x1f549;" 
 />
    <glyph glyph-name="u1f54a" unicode="&#x1f54a;" 
 />
    <glyph glyph-name="u1f54b" unicode="&#x1f54b;" 
 />
    <glyph glyph-name="u1f54c" unicode="&#x1f54c;" 
 />
    <glyph glyph-name="u1f54d" unicode="&#x1f54d;" 
 />
    <glyph glyph-name="u1f54e" unicode="&#x1f54e;" 
 />
    <glyph glyph-name="u1f550" unicode="&#x1f550;" 
 />
    <glyph glyph-name="u1f551" unicode="&#x1f551;" 
 />
    <glyph glyph-name="u1f552" unicode="&#x1f552;" 
 />
    <glyph glyph-name="u1f553" unicode="&#x1f553;" 
 />
    <glyph glyph-name="u1f554" unicode="&#x1f554;" 
 />
    <glyph glyph-name="u1f555" unicode="&#x1f555;" 
 />
    <glyph glyph-name="u1f556" unicode="&#x1f556;" 
 />
    <glyph glyph-name="u1f557" unicode="&#x1f557;" 
 />
    <glyph glyph-name="u1f558" unicode="&#x1f558;" 
 />
    <glyph glyph-name="u1f559" unicode="&#x1f559;" 
 />
    <glyph glyph-name="u1f55a" unicode="&#x1f55a;" 
 />
    <glyph glyph-name="u1f55b" unicode="&#x1f55b;" 
 />
    <glyph glyph-name="u1f55c" unicode="&#x1f55c;" 
 />
    <glyph glyph-name="u1f55d" unicode="&#x1f55d;" 
 />
    <glyph glyph-name="u1f55e" unicode="&#x1f55e;" 
 />
    <glyph glyph-name="u1f55f" unicode="&#x1f55f;" 
 />
    <glyph glyph-name="u1f560" unicode="&#x1f560;" 
 />
    <glyph glyph-name="u1f561" unicode="&#x1f561;" 
 />
    <glyph glyph-name="u1f562" unicode="&#x1f562;" 
 />
    <glyph glyph-name="u1f563" unicode="&#x1f563;" 
 />
    <glyph glyph-name="u1f564" unicode="&#x1f564;" 
 />
    <glyph glyph-name="u1f565" unicode="&#x1f565;" 
 />
    <glyph glyph-name="u1f566" unicode="&#x1f566;" 
 />
    <glyph glyph-name="u1f567" unicode="&#x1f567;" 
 />
    <glyph glyph-name="u1f56f" unicode="&#x1f56f;" 
 />
    <glyph glyph-name="u1f570" unicode="&#x1f570;" 
 />
    <glyph glyph-name="u1f573" unicode="&#x1f573;" 
 />
    <glyph glyph-name="u1f574" unicode="&#x1f574;" 
 />
    <glyph glyph-name="u1f575" unicode="&#x1f575;" 
 />
    <glyph glyph-name="u1f576" unicode="&#x1f576;" 
 />
    <glyph glyph-name="u1f577" unicode="&#x1f577;" 
 />
    <glyph glyph-name="u1f578" unicode="&#x1f578;" 
 />
    <glyph glyph-name="u1f579" unicode="&#x1f579;" 
 />
    <glyph glyph-name="u1f57a" unicode="&#x1f57a;" 
 />
    <glyph glyph-name="u1f587" unicode="&#x1f587;" 
 />
    <glyph glyph-name="u1f58a" unicode="&#x1f58a;" 
 />
    <glyph glyph-name="u1f58b" unicode="&#x1f58b;" 
 />
    <glyph glyph-name="u1f58c" unicode="&#x1f58c;" 
 />
    <glyph glyph-name="u1f58d" unicode="&#x1f58d;" 
 />
    <glyph glyph-name="u1f590" unicode="&#x1f590;" 
 />
    <glyph glyph-name="u1f595" unicode="&#x1f595;" 
 />
    <glyph glyph-name="u1f596" unicode="&#x1f596;" 
 />
    <glyph glyph-name="u1f5a4" unicode="&#x1f5a4;" 
 />
    <glyph glyph-name="u1f5a5" unicode="&#x1f5a5;" 
 />
    <glyph glyph-name="u1f5a8" unicode="&#x1f5a8;" 
 />
    <glyph glyph-name="u1f5b1" unicode="&#x1f5b1;" 
 />
    <glyph glyph-name="u1f5b2" unicode="&#x1f5b2;" 
 />
    <glyph glyph-name="u1f5bc" unicode="&#x1f5bc;" 
 />
    <glyph glyph-name="u1f5c2" unicode="&#x1f5c2;" 
 />
    <glyph glyph-name="u1f5c3" unicode="&#x1f5c3;" 
 />
    <glyph glyph-name="u1f5c4" unicode="&#x1f5c4;" 
 />
    <glyph glyph-name="u1f5d1" unicode="&#x1f5d1;" 
 />
    <glyph glyph-name="u1f5d2" unicode="&#x1f5d2;" 
 />
    <glyph glyph-name="u1f5d3" unicode="&#x1f5d3;" 
 />
    <glyph glyph-name="u1f5dc" unicode="&#x1f5dc;" 
 />
    <glyph glyph-name="u1f5dd" unicode="&#x1f5dd;" 
 />
    <glyph glyph-name="u1f5de" unicode="&#x1f5de;" 
 />
    <glyph glyph-name="u1f5e1" unicode="&#x1f5e1;" 
 />
    <glyph glyph-name="u1f5e3" unicode="&#x1f5e3;" 
 />
    <glyph glyph-name="u1f5e8" unicode="&#x1f5e8;" 
 />
    <glyph glyph-name="u1f5ef" unicode="&#x1f5ef;" 
 />
    <glyph glyph-name="u1f5f3" unicode="&#x1f5f3;" 
 />
    <glyph glyph-name="u1f5fa" unicode="&#x1f5fa;" 
 />
    <glyph glyph-name="u1f5fb" unicode="&#x1f5fb;" 
 />
    <glyph glyph-name="u1f5fc" unicode="&#x1f5fc;" 
 />
    <glyph glyph-name="u1f5fd" unicode="&#x1f5fd;" 
 />
    <glyph glyph-name="u1f5fe" unicode="&#x1f5fe;" 
 />
    <glyph glyph-name="u1f5ff" unicode="&#x1f5ff;" 
 />
    <glyph glyph-name="u1f600" unicode="&#x1f600;" 
 />
    <glyph glyph-name="u1f601" unicode="&#x1f601;" 
 />
    <glyph glyph-name="u1f602" unicode="&#x1f602;" 
 />
    <glyph glyph-name="u1f603" unicode="&#x1f603;" 
 />
    <glyph glyph-name="u1f604" unicode="&#x1f604;" 
 />
    <glyph glyph-name="u1f605" unicode="&#x1f605;" 
 />
    <glyph glyph-name="u1f606" unicode="&#x1f606;" 
 />
    <glyph glyph-name="u1f607" unicode="&#x1f607;" 
 />
    <glyph glyph-name="u1f608" unicode="&#x1f608;" 
 />
    <glyph glyph-name="u1f609" unicode="&#x1f609;" 
 />
    <glyph glyph-name="u1f60a" unicode="&#x1f60a;" 
 />
    <glyph glyph-name="u1f60b" unicode="&#x1f60b;" 
 />
    <glyph glyph-name="u1f60c" unicode="&#x1f60c;" 
 />
    <glyph glyph-name="u1f60d" unicode="&#x1f60d;" 
 />
    <glyph glyph-name="u1f60e" unicode="&#x1f60e;" 
 />
    <glyph glyph-name="u1f60f" unicode="&#x1f60f;" 
 />
    <glyph glyph-name="u1f610" unicode="&#x1f610;" 
 />
    <glyph glyph-name="u1f611" unicode="&#x1f611;" 
 />
    <glyph glyph-name="u1f612" unicode="&#x1f612;" 
 />
    <glyph glyph-name="u1f613" unicode="&#x1f613;" 
 />
    <glyph glyph-name="u1f614" unicode="&#x1f614;" 
 />
    <glyph glyph-name="u1f615" unicode="&#x1f615;" 
 />
    <glyph glyph-name="u1f616" unicode="&#x1f616;" 
 />
    <glyph glyph-name="u1f617" unicode="&#x1f617;" 
 />
    <glyph glyph-name="u1f618" unicode="&#x1f618;" 
 />
    <glyph glyph-name="u1f619" unicode="&#x1f619;" 
 />
    <glyph glyph-name="u1f61a" unicode="&#x1f61a;" 
 />
    <glyph glyph-name="u1f61b" unicode="&#x1f61b;" 
 />
    <glyph glyph-name="u1f61c" unicode="&#x1f61c;" 
 />
    <glyph glyph-name="u1f61d" unicode="&#x1f61d;" 
 />
    <glyph glyph-name="u1f61e" unicode="&#x1f61e;" 
 />
    <glyph glyph-name="u1f61f" unicode="&#x1f61f;" 
 />
    <glyph glyph-name="u1f620" unicode="&#x1f620;" 
 />
    <glyph glyph-name="u1f621" unicode="&#x1f621;" 
 />
    <glyph glyph-name="u1f622" unicode="&#x1f622;" 
 />
    <glyph glyph-name="u1f623" unicode="&#x1f623;" 
 />
    <glyph glyph-name="u1f624" unicode="&#x1f624;" 
 />
    <glyph glyph-name="u1f625" unicode="&#x1f625;" 
 />
    <glyph glyph-name="u1f626" unicode="&#x1f626;" 
 />
    <glyph glyph-name="u1f627" unicode="&#x1f627;" 
 />
    <glyph glyph-name="u1f628" unicode="&#x1f628;" 
 />
    <glyph glyph-name="u1f629" unicode="&#x1f629;" 
 />
    <glyph glyph-name="u1f62a" unicode="&#x1f62a;" 
 />
    <glyph glyph-name="u1f62b" unicode="&#x1f62b;" 
 />
    <glyph glyph-name="u1f62c" unicode="&#x1f62c;" 
 />
    <glyph glyph-name="u1f62d" unicode="&#x1f62d;" 
 />
    <glyph glyph-name="u1f62e" unicode="&#x1f62e;" 
 />
    <glyph glyph-name="u1f62f" unicode="&#x1f62f;" 
 />
    <glyph glyph-name="u1f630" unicode="&#x1f630;" 
 />
    <glyph glyph-name="u1f631" unicode="&#x1f631;" 
 />
    <glyph glyph-name="u1f632" unicode="&#x1f632;" 
 />
    <glyph glyph-name="u1f633" unicode="&#x1f633;" 
 />
    <glyph glyph-name="u1f634" unicode="&#x1f634;" 
 />
    <glyph glyph-name="u1f635" unicode="&#x1f635;" 
 />
    <glyph glyph-name="u1f636" unicode="&#x1f636;" 
 />
    <glyph glyph-name="u1f637" unicode="&#x1f637;" 
 />
    <glyph glyph-name="u1f638" unicode="&#x1f638;" 
 />
    <glyph glyph-name="u1f639" unicode="&#x1f639;" 
 />
    <glyph glyph-name="u1f63a" unicode="&#x1f63a;" 
 />
    <glyph glyph-name="u1f63b" unicode="&#x1f63b;" 
 />
    <glyph glyph-name="u1f63c" unicode="&#x1f63c;" 
 />
    <glyph glyph-name="u1f63d" unicode="&#x1f63d;" 
 />
    <glyph glyph-name="u1f63e" unicode="&#x1f63e;" 
 />
    <glyph glyph-name="u1f63f" unicode="&#x1f63f;" 
 />
    <glyph glyph-name="u1f640" unicode="&#x1f640;" 
 />
    <glyph glyph-name="u1f641" unicode="&#x1f641;" 
 />
    <glyph glyph-name="u1f642" unicode="&#x1f642;" 
 />
    <glyph glyph-name="u1f643" unicode="&#x1f643;" 
 />
    <glyph glyph-name="u1f644" unicode="&#x1f644;" 
 />
    <glyph glyph-name="u1f645" unicode="&#x1f645;" 
 />
    <glyph glyph-name="u1f646" unicode="&#x1f646;" 
 />
    <glyph glyph-name="u1f647" unicode="&#x1f647;" 
 />
    <glyph glyph-name="u1f648" unicode="&#x1f648;" 
 />
    <glyph glyph-name="u1f649" unicode="&#x1f649;" 
 />
    <glyph glyph-name="u1f64a" unicode="&#x1f64a;" 
 />
    <glyph glyph-name="u1f64b" unicode="&#x1f64b;" 
 />
    <glyph glyph-name="u1f64c" unicode="&#x1f64c;" 
 />
    <glyph glyph-name="u1f64d" unicode="&#x1f64d;" 
 />
    <glyph glyph-name="u1f64e" unicode="&#x1f64e;" 
 />
    <glyph glyph-name="u1f64f" unicode="&#x1f64f;" 
 />
    <glyph glyph-name="u1f680" unicode="&#x1f680;" 
 />
    <glyph glyph-name="u1f681" unicode="&#x1f681;" 
 />
    <glyph glyph-name="u1f682" unicode="&#x1f682;" 
 />
    <glyph glyph-name="u1f683" unicode="&#x1f683;" 
 />
    <glyph glyph-name="u1f684" unicode="&#x1f684;" 
 />
    <glyph glyph-name="u1f685" unicode="&#x1f685;" 
 />
    <glyph glyph-name="u1f686" unicode="&#x1f686;" 
 />
    <glyph glyph-name="u1f687" unicode="&#x1f687;" 
 />
    <glyph glyph-name="u1f688" unicode="&#x1f688;" 
 />
    <glyph glyph-name="u1f689" unicode="&#x1f689;" 
 />
    <glyph glyph-name="u1f68a" unicode="&#x1f68a;" 
 />
    <glyph glyph-name="u1f68b" unicode="&#x1f68b;" 
 />
    <glyph glyph-name="u1f68c" unicode="&#x1f68c;" 
 />
    <glyph glyph-name="u1f68d" unicode="&#x1f68d;" 
 />
    <glyph glyph-name="u1f68e" unicode="&#x1f68e;" 
 />
    <glyph glyph-name="u1f68f" unicode="&#x1f68f;" 
 />
    <glyph glyph-name="u1f690" unicode="&#x1f690;" 
 />
    <glyph glyph-name="u1f691" unicode="&#x1f691;" 
 />
    <glyph glyph-name="u1f692" unicode="&#x1f692;" 
 />
    <glyph glyph-name="u1f693" unicode="&#x1f693;" 
 />
    <glyph glyph-name="u1f694" unicode="&#x1f694;" 
 />
    <glyph glyph-name="u1f695" unicode="&#x1f695;" 
 />
    <glyph glyph-name="u1f696" unicode="&#x1f696;" 
 />
    <glyph glyph-name="u1f697" unicode="&#x1f697;" 
 />
    <glyph glyph-name="u1f698" unicode="&#x1f698;" 
 />
    <glyph glyph-name="u1f699" unicode="&#x1f699;" 
 />
    <glyph glyph-name="u1f69a" unicode="&#x1f69a;" 
 />
    <glyph glyph-name="u1f69b" unicode="&#x1f69b;" 
 />
    <glyph glyph-name="u1f69c" unicode="&#x1f69c;" 
 />
    <glyph glyph-name="u1f69d" unicode="&#x1f69d;" 
 />
    <glyph glyph-name="u1f69e" unicode="&#x1f69e;" 
 />
    <glyph glyph-name="u1f69f" unicode="&#x1f69f;" 
 />
    <glyph glyph-name="u1f6a0" unicode="&#x1f6a0;" 
 />
    <glyph glyph-name="u1f6a1" unicode="&#x1f6a1;" 
 />
    <glyph glyph-name="u1f6a2" unicode="&#x1f6a2;" 
 />
    <glyph glyph-name="u1f6a3" unicode="&#x1f6a3;" 
 />
    <glyph glyph-name="u1f6a4" unicode="&#x1f6a4;" 
 />
    <glyph glyph-name="u1f6a5" unicode="&#x1f6a5;" 
 />
    <glyph glyph-name="u1f6a6" unicode="&#x1f6a6;" 
 />
    <glyph glyph-name="u1f6a7" unicode="&#x1f6a7;" 
 />
    <glyph glyph-name="u1f6a8" unicode="&#x1f6a8;" 
 />
    <glyph glyph-name="u1f6a9" unicode="&#x1f6a9;" 
 />
    <glyph glyph-name="u1f6aa" unicode="&#x1f6aa;" 
 />
    <glyph glyph-name="u1f6ab" unicode="&#x1f6ab;" 
 />
    <glyph glyph-name="u1f6ac" unicode="&#x1f6ac;" 
 />
    <glyph glyph-name="u1f6ad" unicode="&#x1f6ad;" 
 />
    <glyph glyph-name="u1f6ae" unicode="&#x1f6ae;" 
 />
    <glyph glyph-name="u1f6af" unicode="&#x1f6af;" 
 />
    <glyph glyph-name="u1f6b0" unicode="&#x1f6b0;" 
 />
    <glyph glyph-name="u1f6b1" unicode="&#x1f6b1;" 
 />
    <glyph glyph-name="u1f6b2" unicode="&#x1f6b2;" 
 />
    <glyph glyph-name="u1f6b3" unicode="&#x1f6b3;" 
 />
    <glyph glyph-name="u1f6b4" unicode="&#x1f6b4;" 
 />
    <glyph glyph-name="u1f6b5" unicode="&#x1f6b5;" 
 />
    <glyph glyph-name="u1f6b6" unicode="&#x1f6b6;" 
 />
    <glyph glyph-name="u1f6b7" unicode="&#x1f6b7;" 
 />
    <glyph glyph-name="u1f6b8" unicode="&#x1f6b8;" 
 />
    <glyph glyph-name="u1f6b9" unicode="&#x1f6b9;" 
 />
    <glyph glyph-name="u1f6ba" unicode="&#x1f6ba;" 
 />
    <glyph glyph-name="u1f6bb" unicode="&#x1f6bb;" 
 />
    <glyph glyph-name="u1f6bc" unicode="&#x1f6bc;" 
 />
    <glyph glyph-name="u1f6bd" unicode="&#x1f6bd;" 
 />
    <glyph glyph-name="u1f6be" unicode="&#x1f6be;" 
 />
    <glyph glyph-name="u1f6bf" unicode="&#x1f6bf;" 
 />
    <glyph glyph-name="u1f6c0" unicode="&#x1f6c0;" 
 />
    <glyph glyph-name="u1f6c1" unicode="&#x1f6c1;" 
 />
    <glyph glyph-name="u1f6c2" unicode="&#x1f6c2;" 
 />
    <glyph glyph-name="u1f6c3" unicode="&#x1f6c3;" 
 />
    <glyph glyph-name="u1f6c4" unicode="&#x1f6c4;" 
 />
    <glyph glyph-name="u1f6c5" unicode="&#x1f6c5;" 
 />
    <glyph glyph-name="u1f6cb" unicode="&#x1f6cb;" 
 />
    <glyph glyph-name="u1f6cc" unicode="&#x1f6cc;" 
 />
    <glyph glyph-name="u1f6cd" unicode="&#x1f6cd;" 
 />
    <glyph glyph-name="u1f6ce" unicode="&#x1f6ce;" 
 />
    <glyph glyph-name="u1f6cf" unicode="&#x1f6cf;" 
 />
    <glyph glyph-name="u1f6d0" unicode="&#x1f6d0;" 
 />
    <glyph glyph-name="u1f6d1" unicode="&#x1f6d1;" 
 />
    <glyph glyph-name="u1f6d2" unicode="&#x1f6d2;" 
 />
    <glyph glyph-name="u1f6d5" unicode="&#x1f6d5;" 
 />
    <glyph glyph-name="u1f6e0" unicode="&#x1f6e0;" 
 />
    <glyph glyph-name="u1f6e1" unicode="&#x1f6e1;" 
 />
    <glyph glyph-name="u1f6e2" unicode="&#x1f6e2;" 
 />
    <glyph glyph-name="u1f6e3" unicode="&#x1f6e3;" 
 />
    <glyph glyph-name="u1f6e4" unicode="&#x1f6e4;" 
 />
    <glyph glyph-name="u1f6e5" unicode="&#x1f6e5;" 
 />
    <glyph glyph-name="u1f6e9" unicode="&#x1f6e9;" 
 />
    <glyph glyph-name="u1f6eb" unicode="&#x1f6eb;" 
 />
    <glyph glyph-name="u1f6ec" unicode="&#x1f6ec;" 
 />
    <glyph glyph-name="u1f6f0" unicode="&#x1f6f0;" 
 />
    <glyph glyph-name="u1f6f3" unicode="&#x1f6f3;" 
 />
    <glyph glyph-name="u1f6f4" unicode="&#x1f6f4;" 
 />
    <glyph glyph-name="u1f6f5" unicode="&#x1f6f5;" 
 />
    <glyph glyph-name="u1f6f6" unicode="&#x1f6f6;" 
 />
    <glyph glyph-name="u1f6f7" unicode="&#x1f6f7;" 
 />
    <glyph glyph-name="u1f6f8" unicode="&#x1f6f8;" 
 />
    <glyph glyph-name="u1f6f9" unicode="&#x1f6f9;" 
 />
    <glyph glyph-name="u1f6fa" unicode="&#x1f6fa;" 
 />
    <glyph glyph-name="u1f7e0" unicode="&#x1f7e0;" 
 />
    <glyph glyph-name="u1f7e1" unicode="&#x1f7e1;" 
 />
    <glyph glyph-name="u1f7e2" unicode="&#x1f7e2;" 
 />
    <glyph glyph-name="u1f7e3" unicode="&#x1f7e3;" 
 />
    <glyph glyph-name="u1f7e4" unicode="&#x1f7e4;" 
 />
    <glyph glyph-name="u1f7e5" unicode="&#x1f7e5;" 
 />
    <glyph glyph-name="u1f7e6" unicode="&#x1f7e6;" 
 />
    <glyph glyph-name="u1f7e7" unicode="&#x1f7e7;" 
 />
    <glyph glyph-name="u1f7e8" unicode="&#x1f7e8;" 
 />
    <glyph glyph-name="u1f7e9" unicode="&#x1f7e9;" 
 />
    <glyph glyph-name="u1f7ea" unicode="&#x1f7ea;" 
 />
    <glyph glyph-name="u1f7eb" unicode="&#x1f7eb;" 
 />
    <glyph glyph-name="u1f90d" unicode="&#x1f90d;" 
 />
    <glyph glyph-name="u1f90e" unicode="&#x1f90e;" 
 />
    <glyph glyph-name="u1f90f" unicode="&#x1f90f;" 
 />
    <glyph glyph-name="u1f910" unicode="&#x1f910;" 
 />
    <glyph glyph-name="u1f911" unicode="&#x1f911;" 
 />
    <glyph glyph-name="u1f912" unicode="&#x1f912;" 
 />
    <glyph glyph-name="u1f913" unicode="&#x1f913;" 
 />
    <glyph glyph-name="u1f914" unicode="&#x1f914;" 
 />
    <glyph glyph-name="u1f915" unicode="&#x1f915;" 
 />
    <glyph glyph-name="u1f916" unicode="&#x1f916;" 
 />
    <glyph glyph-name="u1f917" unicode="&#x1f917;" 
 />
    <glyph glyph-name="u1f918" unicode="&#x1f918;" 
 />
    <glyph glyph-name="u1f919" unicode="&#x1f919;" 
 />
    <glyph glyph-name="u1f91a" unicode="&#x1f91a;" 
 />
    <glyph glyph-name="u1f91b" unicode="&#x1f91b;" 
 />
    <glyph glyph-name="u1f91c" unicode="&#x1f91c;" 
 />
    <glyph glyph-name="u1f91d" unicode="&#x1f91d;" 
 />
    <glyph glyph-name="u1f91e" unicode="&#x1f91e;" 
 />
    <glyph glyph-name="u1f91f" unicode="&#x1f91f;" 
 />
    <glyph glyph-name="u1f920" unicode="&#x1f920;" 
 />
    <glyph glyph-name="u1f921" unicode="&#x1f921;" 
 />
    <glyph glyph-name="u1f922" unicode="&#x1f922;" 
 />
    <glyph glyph-name="u1f923" unicode="&#x1f923;" 
 />
    <glyph glyph-name="u1f924" unicode="&#x1f924;" 
 />
    <glyph glyph-name="u1f925" unicode="&#x1f925;" 
 />
    <glyph glyph-name="u1f926" unicode="&#x1f926;" 
 />
    <glyph glyph-name="u1f927" unicode="&#x1f927;" 
 />
    <glyph glyph-name="u1f928" unicode="&#x1f928;" 
 />
    <glyph glyph-name="u1f929" unicode="&#x1f929;" 
 />
    <glyph glyph-name="u1f92a" unicode="&#x1f92a;" 
 />
    <glyph glyph-name="u1f92b" unicode="&#x1f92b;" 
 />
    <glyph glyph-name="u1f92c" unicode="&#x1f92c;" 
 />
    <glyph glyph-name="u1f92d" unicode="&#x1f92d;" 
 />
    <glyph glyph-name="u1f92e" unicode="&#x1f92e;" 
 />
    <glyph glyph-name="u1f92f" unicode="&#x1f92f;" 
 />
    <glyph glyph-name="u1f930" unicode="&#x1f930;" 
 />
    <glyph glyph-name="u1f931" unicode="&#x1f931;" 
 />
    <glyph glyph-name="u1f932" unicode="&#x1f932;" 
 />
    <glyph glyph-name="u1f933" unicode="&#x1f933;" 
 />
    <glyph glyph-name="u1f934" unicode="&#x1f934;" 
 />
    <glyph glyph-name="u1f935" unicode="&#x1f935;" 
 />
    <glyph glyph-name="u1f936" unicode="&#x1f936;" 
 />
    <glyph glyph-name="u1f937" unicode="&#x1f937;" 
 />
    <glyph glyph-name="u1f938" unicode="&#x1f938;" 
 />
    <glyph glyph-name="u1f939" unicode="&#x1f939;" 
 />
    <glyph glyph-name="u1f93a" unicode="&#x1f93a;" 
 />
    <glyph glyph-name="u1f93c" unicode="&#x1f93c;" 
 />
    <glyph glyph-name="u1f93d" unicode="&#x1f93d;" 
 />
    <glyph glyph-name="u1f93e" unicode="&#x1f93e;" 
 />
    <glyph glyph-name="u1f93f" unicode="&#x1f93f;" 
 />
    <glyph glyph-name="u1f940" unicode="&#x1f940;" 
 />
    <glyph glyph-name="u1f941" unicode="&#x1f941;" 
 />
    <glyph glyph-name="u1f942" unicode="&#x1f942;" 
 />
    <glyph glyph-name="u1f943" unicode="&#x1f943;" 
 />
    <glyph glyph-name="u1f944" unicode="&#x1f944;" 
 />
    <glyph glyph-name="u1f945" unicode="&#x1f945;" 
 />
    <glyph glyph-name="u1f947" unicode="&#x1f947;" 
 />
    <glyph glyph-name="u1f948" unicode="&#x1f948;" 
 />
    <glyph glyph-name="u1f949" unicode="&#x1f949;" 
 />
    <glyph glyph-name="u1f94a" unicode="&#x1f94a;" 
 />
    <glyph glyph-name="u1f94b" unicode="&#x1f94b;" 
 />
    <glyph glyph-name="u1f94c" unicode="&#x1f94c;" 
 />
    <glyph glyph-name="u1f94d" unicode="&#x1f94d;" 
 />
    <glyph glyph-name="u1f94e" unicode="&#x1f94e;" 
 />
    <glyph glyph-name="u1f94f" unicode="&#x1f94f;" 
 />
    <glyph glyph-name="u1f950" unicode="&#x1f950;" 
 />
    <glyph glyph-name="u1f951" unicode="&#x1f951;" 
 />
    <glyph glyph-name="u1f952" unicode="&#x1f952;" 
 />
    <glyph glyph-name="u1f953" unicode="&#x1f953;" 
 />
    <glyph glyph-name="u1f954" unicode="&#x1f954;" 
 />
    <glyph glyph-name="u1f955" unicode="&#x1f955;" 
 />
    <glyph glyph-name="u1f956" unicode="&#x1f956;" 
 />
    <glyph glyph-name="u1f957" unicode="&#x1f957;" 
 />
    <glyph glyph-name="u1f958" unicode="&#x1f958;" 
 />
    <glyph glyph-name="u1f959" unicode="&#x1f959;" 
 />
    <glyph glyph-name="u1f95a" unicode="&#x1f95a;" 
 />
    <glyph glyph-name="u1f95b" unicode="&#x1f95b;" 
 />
    <glyph glyph-name="u1f95c" unicode="&#x1f95c;" 
 />
    <glyph glyph-name="u1f95d" unicode="&#x1f95d;" 
 />
    <glyph glyph-name="u1f95e" unicode="&#x1f95e;" 
 />
    <glyph glyph-name="u1f95f" unicode="&#x1f95f;" 
 />
    <glyph glyph-name="u1f960" unicode="&#x1f960;" 
 />
    <glyph glyph-name="u1f961" unicode="&#x1f961;" 
 />
    <glyph glyph-name="u1f962" unicode="&#x1f962;" 
 />
    <glyph glyph-name="u1f963" unicode="&#x1f963;" 
 />
    <glyph glyph-name="u1f964" unicode="&#x1f964;" 
 />
    <glyph glyph-name="u1f965" unicode="&#x1f965;" 
 />
    <glyph glyph-name="u1f966" unicode="&#x1f966;" 
 />
    <glyph glyph-name="u1f967" unicode="&#x1f967;" 
 />
    <glyph glyph-name="u1f968" unicode="&#x1f968;" 
 />
    <glyph glyph-name="u1f969" unicode="&#x1f969;" 
 />
    <glyph glyph-name="u1f96a" unicode="&#x1f96a;" 
 />
    <glyph glyph-name="u1f96b" unicode="&#x1f96b;" 
 />
    <glyph glyph-name="u1f96c" unicode="&#x1f96c;" 
 />
    <glyph glyph-name="u1f96d" unicode="&#x1f96d;" 
 />
    <glyph glyph-name="u1f96e" unicode="&#x1f96e;" 
 />
    <glyph glyph-name="u1f96f" unicode="&#x1f96f;" 
 />
    <glyph glyph-name="u1f970" unicode="&#x1f970;" 
 />
    <glyph glyph-name="u1f971" unicode="&#x1f971;" 
 />
    <glyph glyph-name="u1f973" unicode="&#x1f973;" 
 />
    <glyph glyph-name="u1f974" unicode="&#x1f974;" 
 />
    <glyph glyph-name="u1f975" unicode="&#x1f975;" 
 />
    <glyph glyph-name="u1f976" unicode="&#x1f976;" 
 />
    <glyph glyph-name="u1f97a" unicode="&#x1f97a;" 
 />
    <glyph glyph-name="u1f97b" unicode="&#x1f97b;" 
 />
    <glyph glyph-name="u1f97c" unicode="&#x1f97c;" 
 />
    <glyph glyph-name="u1f97d" unicode="&#x1f97d;" 
 />
    <glyph glyph-name="u1f97e" unicode="&#x1f97e;" 
 />
    <glyph glyph-name="u1f97f" unicode="&#x1f97f;" 
 />
    <glyph glyph-name="u1f980" unicode="&#x1f980;" 
 />
    <glyph glyph-name="u1f981" unicode="&#x1f981;" 
 />
    <glyph glyph-name="u1f982" unicode="&#x1f982;" 
 />
    <glyph glyph-name="u1f983" unicode="&#x1f983;" 
 />
    <glyph glyph-name="u1f984" unicode="&#x1f984;" 
 />
    <glyph glyph-name="u1f985" unicode="&#x1f985;" 
 />
    <glyph glyph-name="u1f986" unicode="&#x1f986;" 
 />
    <glyph glyph-name="u1f987" unicode="&#x1f987;" 
 />
    <glyph glyph-name="u1f988" unicode="&#x1f988;" 
 />
    <glyph glyph-name="u1f989" unicode="&#x1f989;" 
 />
    <glyph glyph-name="u1f98a" unicode="&#x1f98a;" 
 />
    <glyph glyph-name="u1f98b" unicode="&#x1f98b;" 
 />
    <glyph glyph-name="u1f98c" unicode="&#x1f98c;" 
 />
    <glyph glyph-name="u1f98d" unicode="&#x1f98d;" 
 />
    <glyph glyph-name="u1f98e" unicode="&#x1f98e;" 
 />
    <glyph glyph-name="u1f98f" unicode="&#x1f98f;" 
 />
    <glyph glyph-name="u1f990" unicode="&#x1f990;" 
 />
    <glyph glyph-name="u1f991" unicode="&#x1f991;" 
 />
    <glyph glyph-name="u1f992" unicode="&#x1f992;" 
 />
    <glyph glyph-name="u1f993" unicode="&#x1f993;" 
 />
    <glyph glyph-name="u1f994" unicode="&#x1f994;" 
 />
    <glyph glyph-name="u1f995" unicode="&#x1f995;" 
 />
    <glyph glyph-name="u1f996" unicode="&#x1f996;" 
 />
    <glyph glyph-name="u1f997" unicode="&#x1f997;" 
 />
    <glyph glyph-name="u1f998" unicode="&#x1f998;" 
 />
    <glyph glyph-name="u1f999" unicode="&#x1f999;" 
 />
    <glyph glyph-name="u1f99a" unicode="&#x1f99a;" 
 />
    <glyph glyph-name="u1f99b" unicode="&#x1f99b;" 
 />
    <glyph glyph-name="u1f99c" unicode="&#x1f99c;" 
 />
    <glyph glyph-name="u1f99d" unicode="&#x1f99d;" 
 />
    <glyph glyph-name="u1f99e" unicode="&#x1f99e;" 
 />
    <glyph glyph-name="u1f99f" unicode="&#x1f99f;" 
 />
    <glyph glyph-name="u1f9a0" unicode="&#x1f9a0;" 
 />
    <glyph glyph-name="u1f9a1" unicode="&#x1f9a1;" 
 />
    <glyph glyph-name="u1f9a2" unicode="&#x1f9a2;" 
 />
    <glyph glyph-name="u1f9a5" unicode="&#x1f9a5;" 
 />
    <glyph glyph-name="u1f9a6" unicode="&#x1f9a6;" 
 />
    <glyph glyph-name="u1f9a7" unicode="&#x1f9a7;" 
 />
    <glyph glyph-name="u1f9a8" unicode="&#x1f9a8;" 
 />
    <glyph glyph-name="u1f9a9" unicode="&#x1f9a9;" 
 />
    <glyph glyph-name="u1f9aa" unicode="&#x1f9aa;" 
 />
    <glyph glyph-name="u1f9ae" unicode="&#x1f9ae;" 
 />
    <glyph glyph-name="u1f9af" unicode="&#x1f9af;" 
 />
    <glyph glyph-name="u1f9b0" unicode="&#x1f9b0;" 
 />
    <glyph glyph-name="u1f9b1" unicode="&#x1f9b1;" 
 />
    <glyph glyph-name="u1f9b2" unicode="&#x1f9b2;" 
 />
    <glyph glyph-name="u1f9b3" unicode="&#x1f9b3;" 
 />
    <glyph glyph-name="u1f9b4" unicode="&#x1f9b4;" 
 />
    <glyph glyph-name="u1f9b5" unicode="&#x1f9b5;" 
 />
    <glyph glyph-name="u1f9b6" unicode="&#x1f9b6;" 
 />
    <glyph glyph-name="u1f9b7" unicode="&#x1f9b7;" 
 />
    <glyph glyph-name="u1f9b8" unicode="&#x1f9b8;" 
 />
    <glyph glyph-name="u1f9b9" unicode="&#x1f9b9;" 
 />
    <glyph glyph-name="u1f9ba" unicode="&#x1f9ba;" 
 />
    <glyph glyph-name="u1f9bb" unicode="&#x1f9bb;" 
 />
    <glyph glyph-name="u1f9bc" unicode="&#x1f9bc;" 
 />
    <glyph glyph-name="u1f9bd" unicode="&#x1f9bd;" 
 />
    <glyph glyph-name="u1f9be" unicode="&#x1f9be;" 
 />
    <glyph glyph-name="u1f9bf" unicode="&#x1f9bf;" 
 />
    <glyph glyph-name="u1f9c0" unicode="&#x1f9c0;" 
 />
    <glyph glyph-name="u1f9c1" unicode="&#x1f9c1;" 
 />
    <glyph glyph-name="u1f9c2" unicode="&#x1f9c2;" 
 />
    <glyph glyph-name="u1f9c3" unicode="&#x1f9c3;" 
 />
    <glyph glyph-name="u1f9c4" unicode="&#x1f9c4;" 
 />
    <glyph glyph-name="u1f9c5" unicode="&#x1f9c5;" 
 />
    <glyph glyph-name="u1f9c6" unicode="&#x1f9c6;" 
 />
    <glyph glyph-name="u1f9c7" unicode="&#x1f9c7;" 
 />
    <glyph glyph-name="u1f9c8" unicode="&#x1f9c8;" 
 />
    <glyph glyph-name="u1f9c9" unicode="&#x1f9c9;" 
 />
    <glyph glyph-name="u1f9ca" unicode="&#x1f9ca;" 
 />
    <glyph glyph-name="u1f9cd" unicode="&#x1f9cd;" 
 />
    <glyph glyph-name="u1f9ce" unicode="&#x1f9ce;" 
 />
    <glyph glyph-name="u1f9cf" unicode="&#x1f9cf;" 
 />
    <glyph glyph-name="u1f9d0" unicode="&#x1f9d0;" 
 />
    <glyph glyph-name="u1f9d1" unicode="&#x1f9d1;" 
 />
    <glyph glyph-name="u1f9d2" unicode="&#x1f9d2;" 
 />
    <glyph glyph-name="u1f9d3" unicode="&#x1f9d3;" 
 />
    <glyph glyph-name="u1f9d4" unicode="&#x1f9d4;" 
 />
    <glyph glyph-name="u1f9d5" unicode="&#x1f9d5;" 
 />
    <glyph glyph-name="u1f9d6" unicode="&#x1f9d6;" 
 />
    <glyph glyph-name="u1f9d7" unicode="&#x1f9d7;" 
 />
    <glyph glyph-name="u1f9d8" unicode="&#x1f9d8;" 
 />
    <glyph glyph-name="u1f9d9" unicode="&#x1f9d9;" 
 />
    <glyph glyph-name="u1f9da" unicode="&#x1f9da;" 
 />
    <glyph glyph-name="u1f9db" unicode="&#x1f9db;" 
 />
    <glyph glyph-name="u1f9dc" unicode="&#x1f9dc;" 
 />
    <glyph glyph-name="u1f9dd" unicode="&#x1f9dd;" 
 />
    <glyph glyph-name="u1f9de" unicode="&#x1f9de;" 
 />
    <glyph glyph-name="u1f9df" unicode="&#x1f9df;" 
 />
    <glyph glyph-name="u1f9e0" unicode="&#x1f9e0;" 
 />
    <glyph glyph-name="u1f9e1" unicode="&#x1f9e1;" 
 />
    <glyph glyph-name="u1f9e2" unicode="&#x1f9e2;" 
 />
    <glyph glyph-name="u1f9e3" unicode="&#x1f9e3;" 
 />
    <glyph glyph-name="u1f9e4" unicode="&#x1f9e4;" 
 />
    <glyph glyph-name="u1f9e5" unicode="&#x1f9e5;" 
 />
    <glyph glyph-name="u1f9e6" unicode="&#x1f9e6;" 
 />
    <glyph glyph-name="u1f9e7" unicode="&#x1f9e7;" 
 />
    <glyph glyph-name="u1f9e8" unicode="&#x1f9e8;" 
 />
    <glyph glyph-name="u1f9e9" unicode="&#x1f9e9;" 
 />
    <glyph glyph-name="u1f9ea" unicode="&#x1f9ea;" 
 />
    <glyph glyph-name="u1f9eb" unicode="&#x1f9eb;" 
 />
    <glyph glyph-name="u1f9ec" unicode="&#x1f9ec;" 
 />
    <glyph glyph-name="u1f9ed" unicode="&#x1f9ed;" 
 />
    <glyph glyph-name="u1f9ee" unicode="&#x1f9ee;" 
 />
    <glyph glyph-name="u1f9ef" unicode="&#x1f9ef;" 
 />
    <glyph glyph-name="u1f9f0" unicode="&#x1f9f0;" 
 />
    <glyph glyph-name="u1f9f1" unicode="&#x1f9f1;" 
 />
    <glyph glyph-name="u1f9f2" unicode="&#x1f9f2;" 
 />
    <glyph glyph-name="u1f9f3" unicode="&#x1f9f3;" 
 />
    <glyph glyph-name="u1f9f4" unicode="&#x1f9f4;" 
 />
    <glyph glyph-name="u1f9f5" unicode="&#x1f9f5;" 
 />
    <glyph glyph-name="u1f9f6" unicode="&#x1f9f6;" 
 />
    <glyph glyph-name="u1f9f7" unicode="&#x1f9f7;" 
 />
    <glyph glyph-name="u1f9f8" unicode="&#x1f9f8;" 
 />
    <glyph glyph-name="u1f9f9" unicode="&#x1f9f9;" 
 />
    <glyph glyph-name="u1f9fa" unicode="&#x1f9fa;" 
 />
    <glyph glyph-name="u1f9fb" unicode="&#x1f9fb;" 
 />
    <glyph glyph-name="u1f9fc" unicode="&#x1f9fc;" 
 />
    <glyph glyph-name="u1f9fd" unicode="&#x1f9fd;" 
 />
    <glyph glyph-name="u1f9fe" unicode="&#x1f9fe;" 
 />
    <glyph glyph-name="u1f9ff" unicode="&#x1f9ff;" 
 />
    <glyph glyph-name="u1fa70" unicode="&#x1fa70;" 
 />
    <glyph glyph-name="u1fa71" unicode="&#x1fa71;" 
 />
    <glyph glyph-name="u1fa72" unicode="&#x1fa72;" 
 />
    <glyph glyph-name="u1fa73" unicode="&#x1fa73;" 
 />
    <glyph glyph-name="u1fa78" unicode="&#x1fa78;" 
 />
    <glyph glyph-name="u1fa79" unicode="&#x1fa79;" 
 />
    <glyph glyph-name="u1fa7a" unicode="&#x1fa7a;" 
 />
    <glyph glyph-name="u1fa80" unicode="&#x1fa80;" 
 />
    <glyph glyph-name="u1fa81" unicode="&#x1fa81;" 
 />
    <glyph glyph-name="u1fa82" unicode="&#x1fa82;" 
 />
    <glyph glyph-name="u1fa90" unicode="&#x1fa90;" 
 />
    <glyph glyph-name="u1fa91" unicode="&#x1fa91;" 
 />
    <glyph glyph-name="u1fa92" unicode="&#x1fa92;" 
 />
    <glyph glyph-name="u1fa93" unicode="&#x1fa93;" 
 />
    <glyph glyph-name="u1fa94" unicode="&#x1fa94;" 
 />
    <glyph glyph-name="u1fa95" unicode="&#x1fa95;" 
 />
    <glyph glyph-name="ue0062" unicode="&#xe0062;" 
 />
    <glyph glyph-name="ue0063" unicode="&#xe0063;" 
 />
    <glyph glyph-name="ue0065" unicode="&#xe0065;" 
 />
    <glyph glyph-name="ue0067" unicode="&#xe0067;" 
 />
    <glyph glyph-name="ue006c" unicode="&#xe006c;" 
 />
    <glyph glyph-name="ue006e" unicode="&#xe006e;" 
 />
    <glyph glyph-name="ue0073" unicode="&#xe0073;" 
 />
    <glyph glyph-name="ue0074" unicode="&#xe0074;" 
 />
    <glyph glyph-name="ue0077" unicode="&#xe0077;" 
 />
    <glyph glyph-name="ue007f" unicode="&#xe007f;" 
 />
    <glyph glyph-name="u1f004_layer0" 
d="M455 -7q0 -24 -16.5 -40.5t-40.5 -16.5h-284q-24 0 -40.5 16.5t-16.5 40.5v398q0 24 16.5 40.5t40.5 16.5h284q16 0 29 -7.5t20.5 -20.5t7.5 -29v-398z" />
    <glyph glyph-name="u1f004_layer1" 
d="M119 279q12 0 20 -3q5 -2 9 -4q17 1 35 4q46 5 58 7v33q0 34 -8 57q-3 7 -3 9q0 7 5 7q15 0 28 -4q15 -4 15 -10q0 -3 -2 -10q-6 -15 -6 -55v-24q34 3 61 6q15 1 29 5q10 2 12 2q5 0 24 -9q20 -12 20 -19q0 -5 -5 -10q-18 -19 -25 -40l-12 -24q-2 -6 -6 -10l2 -1
q11 -7 11 -12q0 -4 -8 -5q-36 0 -66 -4l-37 -2v-64q0 -42 -3 -68q-3 -30 -9 -42q-5 -10 -8 -10q-2 0 -6 11q-3 13 -3 46v124l-25 -2q-26 -3 -40 -3q-5 0 -9 1q-1 -4 -3 -7q-3 -6 -6 -6q-4 0 -8 6q-6 10 -7 20l-5 36q-3 29 -8 40q-2 12 -12 23q-4 2 -4 3q0 8 5 8zM167 176
q38 2 74 5v87q-36 -4 -70 -11q-7 -3 -12 -4q0 -5 1 -11q5 -43 7 -66zM270 271v-87q4 0 30 3q28 4 41 5q2 3 3 5q4 13 11 43q6 23 6 29q0 8 -15 8q-22 0 -71 -5q-2 0 -5 -1z" />
    <glyph glyph-name="u1f0cf_layer1" 
d="M156 348q30 0 51 -20.5t21 -50.5v-5q0 -16 -1 -24t-3.5 -18.5t-9.5 -15.5t-19 -7q5 7 2.5 9t-7.5 11.5t-5 21.5q0 23 -16.5 40t-40.5 17q-25 0 -42 -19q4 26 24 43.5t46 17.5z" />
    <glyph glyph-name="u1f0cf_layer10" 
d="M242 405q0 4 2 7.5t5 5.5t7 2q6 0 10 -4.5t4 -10.5t-4 -10t-10 -4t-10 4t-4 10z" />
    <glyph glyph-name="u1f0cf_layer2" 
d="M327 249q0 -12 -5 -21.5t-7.5 -11.5t2.5 -9q-12 2 -19 7t-9.5 15.5t-3.5 18.5t-1 24v5q0 30 21 50.5t51 20.5q17 0 32.5 -8t25 -22t12.5 -31q-17 19 -42 19q-24 0 -40.5 -17t-16.5 -40z" />
    <glyph glyph-name="u1f0cf_layer3" 
d="M199 277q0 32 14.5 64t28.5 48l14 16q6 -6 15.5 -17.5t25.5 -45t16 -65.5q0 -53 -16.5 -90.5t-40.5 -37.5t-40.5 37.5t-16.5 90.5z" />
    <glyph glyph-name="u1f0cf_layer4" 
d="M166 148q27 -3 44.5 -23t17.5 -47q0 -19 -9.5 -35.5t-26 -26t-36.5 -9.5q-26 0 -46 17.5t-24 43.5q17 -18 42 -18q24 0 40.5 16.5t16.5 40.5t-19 41zM384 50q25 0 42 18q-3 -17 -12.5 -31t-25 -22t-32.5 -8q-30 0 -51 21t-21 50q0 27 17.5 47t44.5 23q-19 -17 -19 -41
t16.5 -40.5t40.5 -16.5z" />
    <glyph glyph-name="u1f0cf_layer5" 
d="M199 107q0 18 2 35q6 41 21 67t34 26t34 -26t21 -67q2 -17 2 -35q0 -33 -11.5 -64t-24.5 -47.5t-21 -16.5t-21 16.5t-24.5 47.5t-11.5 64z" />
    <glyph glyph-name="u1f0cf_layer6" 
d="M185 206q0 20 6.5 32.5t19 17t22 6t23.5 1.5t23.5 -1.5t22 -6t19 -17t6.5 -32.5q0 -41 -21 -70t-50 -29q-19 0 -35.5 13t-26 36t-9.5 50z" />
    <glyph glyph-name="u1f0cf_layer7" 
d="M213 206q0 6 4.5 10t10 4t10 -4t4.5 -10t-4.5 -10t-10 -4t-10 4t-4.5 10zM270 206q0 6 4.5 10t10 4t10 -4t4.5 -10t-4.5 -10t-10 -4t-10 4t-4.5 10zM256 135q-12 0 -20 8.5t-8 20.5h56q0 -12 -8 -20.5t-20 -8.5z" />
    <glyph glyph-name="u1f0cf_layer8" 
d="M71 291.5q0 5.5 4 10t10 4.5q4 0 7.5 -2t5.5 -5.5t2 -6.5q0 -6 -4.5 -10.5t-10.5 -4.5t-10 4.5t-4 10z" />
    <glyph glyph-name="u1f0cf_layer9" 
d="M412 292q0 5 4.5 9.5t10.5 4.5t10 -4.5t4 -10t-4 -10t-10 -4.5q-4 0 -7.5 2t-5.5 5.5t-2 7.5z" />
    <glyph glyph-name="u1f170_layer0" 
d="M512 -7q0 -24 -16.5 -40.5t-40.5 -16.5h-398q-24 0 -40.5 16.5t-16.5 40.5v398q0 24 16.5 40.5t40.5 16.5h398q24 0 40.5 -16.5t16.5 -40.5v-398z" />
    <glyph glyph-name="u1f170_layer1" 
d="M210 318q6 16 18.5 26.5t28.5 10.5q34 0 47 -37l87 -240q3 -9 3 -16q0 -13 -9 -21t-21 -8q-25 0 -33 23l-13 41h-122l-14 -41q-7 -23 -31 -23q-14 0 -23.5 9t-9.5 22q0 7 3 14zM215 158h83l-41 128h-1z" />
    <glyph glyph-name="u1f171_layer1" 
d="M149 316q0 16 10 25t25 9h85q17 0 32 -6t26.5 -16t18 -24.5t6.5 -31.5q0 -46 -41 -65v-1q28 -4 47.5 -25t19.5 -50q0 -45 -28 -70t-75 -25h-90q-16 0 -26 9t-10 24v247zM215 225h35q11 0 19 4t12.5 12t4.5 19q0 15 -10.5 23t-25.5 8h-35v-66zM215 94h52q19 0 30.5 10
t11.5 28q0 16 -12 25.5t-35 9.5h-47v-73z" />
    <glyph glyph-name="u1f17e_layer1" 
d="M99 192q0 72 44 119.5t113 47.5q68 0 112.5 -48.5t44.5 -118.5q0 -35 -11.5 -66t-32 -53.5t-50 -35t-63.5 -12.5q-69 0 -113 48t-44 119zM342 192q0 28 -9.5 51.5t-29.5 38.5t-47 15q-41 0 -63.5 -30.5t-22.5 -74.5q0 -45 22.5 -75t63.5 -30t63.5 30t22.5 75z" />
    <glyph glyph-name="u1f17f_layer1" 
d="M156 313q0 16 9.5 25.5t26.5 9.5h81q50 0 83 -29t33 -78q0 -48 -32.5 -77t-81.5 -29h-47v-78q0 -8 -3 -15t-7.5 -11.5t-10.5 -6.5t-14 -2q-15 0 -26 9.5t-11 25.5v256zM228 192h43q21 0 34 13.5t13 34.5t-13 34.5t-34 13.5h-43v-96z" />
    <glyph glyph-name="u1f18e_layer1" 
d="M102 305q12 33 42 33q31 0 43 -33l78 -217q3 -8 3 -15q0 -11 -8 -18.5t-19 -7.5q-23 0 -29 21l-13 39h-110l-12 -39q-7 -21 -29 -21q-12 0 -20.5 8t-8.5 20q0 6 3 13zM106 160h76l-37 116h-1zM284 304q0 14 9 22t23 8h76q32 0 53.5 -19.5t21.5 -50.5q0 -41 -37 -58v-1
q26 -4 43.5 -23.5t17.5 -45.5q0 -42 -25 -64t-68 -22h-82q-14 0 -23 8.5t-9 22.5v223zM344 220h31q15 0 23.5 8.5t8.5 23.5q0 14 -9 22t-23 8h-31v-62zM344 107h47q17 0 27.5 8t10.5 24q0 30 -43 30h-42v-62z" />
    <glyph glyph-name="u1f191_layer1" 
d="M182 355q14 0 29 -2.5t30.5 -7.5t25.5 -15.5t10 -24.5q0 -12 -7.5 -20.5t-19.5 -8.5q-7 0 -27 7.5t-41 7.5q-39 0 -61 -28.5t-22 -71.5q0 -41 22 -69t61 -28q21 0 42.5 9t27.5 9q14 0 21.5 -10t7.5 -20q0 -15 -10.5 -25.5t-27 -16t-32 -8t-29.5 -2.5q-66 0 -109 46.5
t-43 116.5q0 27 7.5 51.5t20.5 44.5t31.5 35t42.5 23t50 8zM303 318q0 16 9.5 25t24 9t24 -9t9.5 -25v-222h78q16 0 24 -9.5t8 -21.5q-1 -12 -9.5 -20.5t-22.5 -8.5h-110q-16 0 -25.5 9.5t-9.5 26.5v246z" />
    <glyph glyph-name="u1f192_layer1" 
d="M85 265q15 0 29 -5.5t14 -16.5q0 -6 -3.5 -10t-9.5 -4q-3 0 -12 3.5t-18 3.5q-12 0 -20.5 -6t-13 -16t-4.5 -23q0 -19 10 -31.5t28 -12.5q9 0 19 4.5t13 4.5q6 0 9.5 -5t3.5 -9q0 -13 -14.5 -18.5t-30.5 -5.5q-30 0 -49.5 21.5t-19.5 52.5t19.5 52t49.5 21z" />
    <glyph glyph-name="u1f192_layer2" 
d="M126 192q0 31 19 52t50 21q29 0 48.5 -21t19.5 -52q0 -32 -19 -53t-49 -21t-49.5 21.5t-19.5 52.5zM232 192q0 12 -4 22.5t-12.5 17t-20.5 6.5q-18 0 -28 -13.5t-10 -32.5q0 -13 4 -23t12.5 -16.5t21.5 -6.5q18 0 27.5 13t9.5 33zM270 192q0 31 19 52t49 21t49.5 -21
t19.5 -52q0 -21 -8.5 -37.5t-24.5 -26.5t-36 -10q-30 0 -49 21.5t-19 52.5zM376 192q0 12 -4 22.5t-13 17t-21 6.5q-9 0 -16 -4t-11.5 -10.5t-7 -14.5t-2.5 -17q0 -8 1.5 -14.5t4.5 -12.5t7.5 -10t10.5 -6.5t13 -2.5q18 0 28 13t10 33zM415 248q0 16 15 16t15 -16v-100h36
q7 0 10.5 -4t3.5 -10q-1 -13 -14 -13h-50q-16 0 -16 16v111z" />
    <glyph glyph-name="u1f193_layer1" 
d="M26 269q0 8 5.5 14t14.5 6h66q8 0 12.5 -5t4.5 -12.5t-4.5 -12.5t-12.5 -5h-47v-38h39q9 0 14 -5t5 -12t-5 -12.5t-14 -5.5h-39v-56q0 -9 -5.5 -14.5t-14 -5.5t-14 5.5t-5.5 14.5v144zM140 269q0 20 20 20h45q63 0 63 -58q0 -13 -6.5 -23.5t-17 -16.5t-23.5 -8l43 -47
q6 -5 6 -11q0 -8 -5.5 -14t-14.5 -6t-14 7l-57 69h-1v-56q0 -6 -2.5 -10.5t-6.5 -7t-10 -2.5q-9 0 -14 5.5t-5 14.5v144zM178 208h27q7 0 12 3t8 8t3 12q0 23 -23 23h-27v-46zM277 267q0 22 20 22h63q6 0 10.5 -2.5t6.5 -6.5t2 -9q0 -7 -5 -12t-14 -5h-45v-38h42q9 0 14 -5
t5 -12q0 -4 -1 -7t-3.5 -5.5t-6 -4t-8.5 -1.5h-42v-39h48q8 0 13 -5t5 -13q0 -7 -5 -12t-13 -5h-66q-9 0 -14.5 5t-5.5 14v141zM390 267q0 22 20 22h64q9 0 13.5 -5t4.5 -13q0 -4 -2 -8t-6 -6.5t-10 -2.5h-45v-38h42q9 0 13.5 -5t4.5 -12t-4.5 -12.5t-13.5 -5.5h-42v-39h47
q9 0 13.5 -5t4.5 -13q0 -7 -4.5 -12t-13.5 -5h-66q-5 0 -9.5 2t-7.5 6.5t-3 10.5v141z" />
    <glyph glyph-name="u1f194_layer1" 
d="M81 318q0 11 4.5 18.5t12 11.5t17 4t17 -4t11.5 -11.5t4 -18.5v-251q0 -16 -9 -25t-23.5 -9t-24 9t-9.5 25v251zM187 316q0 15 9.5 24.5t24.5 9.5h73q49 0 84 -20t53.5 -56.5t18.5 -85.5q-1 -69 -42 -110.5t-109 -41.5h-77q-13 0 -24 8t-11 25v247zM253 96h45
q41 0 62 26.5t21 68.5q0 29 -9 50.5t-29 34.5t-50 13h-40v-193z" />
    <glyph glyph-name="u1f195_layer1" 
d="M22 261q0 19 18 19q9 0 15 -8l77 -102v91q0 19 18 19t18 -19v-137q0 -19 -18 -19q-9 0 -15 8l-77 101v-90q0 -19 -18 -19t-18 19v137zM179 258q0 21 19 21h60q8 0 12.5 -5t4.5 -12t-4.5 -12t-12.5 -5h-43v-35h40q6 0 10 -2.5t6 -6t2 -8.5q0 -6 -5 -11t-13 -5h-40v-37h45
q8 0 12.5 -5t4.5 -11.5t-4.5 -11.5t-12.5 -5h-62q-8 0 -13.5 5t-5.5 13v133zM283 256q-1 4 -1 8q0 6 5 11t12 5q16 0 20 -17l20 -103h1l31 106q4 14 18.5 14t19.5 -14l31 -106h1l20 103q4 17 20 17q7 0 12 -5t5 -11q0 -4 -1 -8l-31 -132q-4 -19 -24 -19q-19 0 -24 18l-28 93
l-28 -93q-6 -18 -24 -18q-20 0 -24 19z" />
    <glyph glyph-name="u1f196_layer1" 
d="M36 297q0 12 7 19t18 7q14 0 22 -11l108 -144h1v129q0 12 7 19t18 7q8 0 13.5 -3t9 -9t3.5 -14v-194q0 -9 -3.5 -15t-9 -9t-13.5 -3q-13 0 -21 11l-108 143h-1v-127q0 -13 -7 -20t-18.5 -7t-18.5 7t-7 20v194zM454 222q30 0 30 -33q0 -50 -30.5 -82.5t-80.5 -32.5
q-52 0 -85 36t-33 90t33 89.5t85 35.5q37 0 65 -14.5t28 -33.5q0 -11 -6 -17.5t-15 -6.5t-18 6.5t-22 12.5t-32 6q-21 0 -36 -11t-22 -28.5t-7 -38.5q0 -34 17 -56.5t48 -22.5q23 0 40.5 13.5t17.5 40.5h-35q-11 0 -17.5 7t-6.5 17q0 7 3 12.5t8.5 8t12.5 2.5h58z" />
    <glyph glyph-name="u1f197_layer1" 
d="M27 200q0 35 15 63.5t42 45t61 16.5q51 0 84 -36.5t33 -88.5q0 -54 -32.5 -90t-84.5 -36q-34 0 -61 16.5t-42 45.5t-15 64zM209 200q0 33 -17 55.5t-47.5 22.5t-47 -22.5t-16.5 -55.5q0 -34 16.5 -56.5t47.5 -22.5q21 0 35.5 11t21.5 28.5t7 39.5zM283 298q0 11 7.5 18
t18.5 7t18.5 -6.5t7.5 -18.5v-74l84 90q8 9 19 9t18.5 -7t7.5 -17.5t-17 -27.5l-65 -63l79 -82q15 -15 15 -26.5t-8 -17.5t-19 -6t-26 16l-88 96v-87q0 -10 -7.5 -17.5t-18.5 -7.5q-7 0 -13 3t-9.5 8.5t-3.5 13.5v197z" />
    <glyph glyph-name="u1f198_layer1" 
d="M139 270q0 -9 -5.5 -15t-13.5 -6q-5 0 -17 4t-21 4q-10 0 -16.5 -4.5t-6.5 -13.5t14.5 -15t32.5 -10t33 -19t15 -40q0 -30 -21.5 -48t-51.5 -18q-24 0 -46.5 7t-22.5 25q0 5 2 10t6.5 7.5t10.5 2.5t22 -5.5t26 -5.5q13 0 21 7t8 17.5t-15 17t-33 10t-32.5 17t-14.5 35.5
q0 19 9.5 34t25.5 22.5t35 7.5q18 0 37 -6.5t19 -21.5zM158 194q0 45 27.5 74.5t70.5 29.5q42 0 70 -30t28 -74q0 -30 -12 -53.5t-34.5 -37.5t-51.5 -14q-43 0 -70.5 30t-27.5 75zM310 194q0 27 -14.5 46t-39.5 19t-39 -19t-14 -46q0 -28 13.5 -47t39.5 -19t40 19t14 47z
M486 270q0 -4 -1.5 -8t-4 -7t-6 -4.5t-7.5 -1.5q-6 0 -17.5 4t-20.5 4q-7 0 -12 -2t-8.5 -6t-3.5 -10q0 -9 15 -15t33 -10t32.5 -19t14.5 -40q0 -20 -10 -35t-26.5 -23t-35.5 -8q-25 0 -47.5 7t-22.5 25q0 5 2.5 10t7 7.5t9.5 2.5q7 0 22.5 -5.5t25.5 -5.5q14 0 21.5 7
t7.5 17.5t-14.5 17t-32.5 10t-33 17t-15 35.5q0 19 10 34t26 22.5t35 7.5q10 0 21.5 -2t23 -9t11.5 -17z" />
    <glyph glyph-name="u1f199_layer1" 
d="M32 284q0 10 6.5 16.5t16.5 6.5t16 -6.5t6 -16.5v-105q0 -21 12.5 -35t33.5 -14q20 0 33 14.5t13 34.5v105q0 10 6 16.5t16 6.5t16.5 -6.5t6.5 -16.5v-107q0 -25 -12.5 -45t-33 -31.5t-45.5 -11.5q-38 0 -64.5 25t-26.5 63v107zM239 282q0 23 23 23h53q22 0 39.5 -9
t27 -25t9.5 -37q0 -32 -21.5 -51.5t-52.5 -19.5h-33v-49q0 -11 -6.5 -17t-16.5 -6t-16 6t-6 17v168zM284 202h30q14 0 22.5 9t8.5 23t-8.5 23t-22.5 9h-30v-64zM418 112q0 10 7 16.5t16.5 6.5t16.5 -6.5t7 -16t-7 -16.5t-17 -7q-4 0 -8.5 2t-7.5 5t-5 7t-2 9zM420 288
q0 10 6 15.5t15 5.5t15.5 -6t6.5 -15v-115q0 -9 -6.5 -14.5t-15.5 -5.5t-15 5.5t-6 14.5v115z" />
    <glyph glyph-name="u1f19a_layer1" 
d="M241 346q14 0 23.5 -8.5t9.5 -21.5q0 -8 -3 -16l-93 -238q-10 -24 -31.5 -24t-31.5 24l-94 238q-3 8 -3 16q0 13 10 21.5t23 8.5q19 0 29 -20l66 -178l66 178q11 20 29 20zM351 260q0 -12 15 -19t35.5 -13t41.5 -14.5t36 -28.5t15 -51q0 -44 -32 -71.5t-78 -27.5
q-9 0 -19 1t-22 2.5t-22.5 5.5t-20 9t-14.5 12.5t-5 17.5q0 8 3.5 15t10 11t14.5 4q9 0 33 -8.5t39 -8.5q21 0 32.5 10.5t11.5 26.5q0 14 -15 22t-36 13.5t-42 13t-35.5 25.5t-14.5 45q0 44 31 70.5t75 26.5q15 0 32.5 -3.5t34 -13.5t16.5 -26q0 -13 -7.5 -22t-20.5 -9
q-8 0 -25.5 6.5t-31.5 6.5q-9 0 -17 -3.5t-13 -10t-5 -14.5z" />
    <glyph glyph-name="u1f1e6-1f1e8_layer0" 
d="M455 377q24 0 40.5 -16.5t16.5 -40.5v-256q0 -24 -16.5 -40.5t-40.5 -16.5h-398q-24 0 -40.5 16.5t-16.5 40.5v256q0 17 9 31h39v25q4 1 9 1h398z" />
    <glyph glyph-name="u1f1e6-1f1e8_layer1" 
d="M415 217l-22 -55l-22 55l22 56z" />
    <glyph glyph-name="u1f1e6-1f1e8_layer10" 
d="M334.5 108q6.5 0 8.5 -1l9 -8q8 -6 9 -10q5 -2 5 -5q0 -2 -4 -3.5t-7 -0.5q-9 2 -12 1q-7 -4 -13 -3h-10q-2 0 -5 2t-5 2q-2 1 -5 0.5t-6 0t-3 2.5q-1 2 4 5t9 3q1 0 10 7.5t15.5 7.5zM451 108q5 0 10.5 -4t10 -7.5t5.5 -3.5q4 0 9 -3t4 -5t-3.5 -2.5t-5.5 0t-5 -0.5
q-2 0 -5 -2t-5 -2h-10q-6 -1 -13 3q-3 1 -13 -1q-2 -1 -6.5 0.5t-4.5 3.5l6 5q1 2 3 4.5t4 3.5l2 2q3 6 9 8q2 1 8 1z" />
    <glyph glyph-name="u1f1e6-1f1e8_layer11" 
d="M328 105l3 -1h2q3 1 4 1t1 -2q1 -1 2 -1q3 -1 1 -4l-2 -3q-8 -2 -10 -3q-7 -3 -2 -4l13 -4h-12q-1 0 -4.5 -0.5t-4.5 -0.5q-2 -1 -3 -2h-2q-2 1 -3 1q-5 3 -5 4q2 1 9 1q2 1 3 3q-2 1 2 4q2 2 4 2l7 2l-2 1q-8 2 -1 6z" />
    <glyph glyph-name="u1f1e6-1f1e8_layer12" 
d="M332 92q6 1 9 -2q-2 -3 -4 -2zM458 105q7 -4 -1 -6q-5 -1 3 -3h2q6 -2 6 -6q0 -1 3 -3q7 0 9 -1q3 -1 -3 -3q-1 -1 -2 -1t-3 -1h-2q0 1 -3 2q-1 0 -2.5 0.5t-3.5 0.5h-3h-12l13 4q5 1 -2 4l-10 3l-2 3q-2 3 1 4q1 0 1.5 1.5t1.5 1.5t4 -1h1z" />
    <glyph glyph-name="u1f1e6-1f1e8_layer13" 
d="M361 89l5 -5v-1q-1 -1 -3 -2q-5 -2 -8 -1h-1q-1 2 -2 3q-3 1 -7 -1q-2 -1 -4 -1q-7 -1 -14 0v1l1 1q2 1 9 -1q4 -1 11 2h4q2 -1 3.5 -0.5t1.5 1t-3.5 0.5t-6.5 0.5l-3 0.5q1 1 11 1q3 1 4 1l-2 2v1q0 2 -4 4q-3 1 -6 1q-2 1 -4 0h-1q1 3 3 4t-2 4q-3 2 1 3l8 -8
q8 -6 9 -10z" />
    <glyph glyph-name="u1f1e6-1f1e8_layer14" 
d="M338 111q-1 6 0 6l3 -2l2 7l3 -4l4 4v-5l3 -4q-1 -1 -7 -2h-2v-2q2 1 4.5 1.5t3.5 -1.5q-1 -3 -5 -3l-7 1l-6 -3h-1zM327 117q1 -3 4 -3q2 -1 3 -3l-4 -1l1 -5v-1l-3 5l-2 -3l-3 4l0.5 0.5t1.5 0.5t1 0.5v1.5q-2 1 -2 2.5t2 1.5q1 -1 -2 -2zM291 92l5 3q1 5 2 5l4 -4l2 2
q5 -3 4 -5q-3 -7 -4 -7l-5 4q-1 -1 -4 -1zM350 102l4 5l2 -3q6 1 8 -1q2 -1 2 -3.5t-2 -3.5q-5 -2 -9 2v-2q-1 -5 -3 -5q-5 0 -3 5v4q-5 0 -7 -3q2 2 4 3z" />
    <glyph glyph-name="u1f1e6-1f1e8_layer15" 
d="M344 194v-4q0 -6 -3 -8l-4 -5l1 -5q4 3 10 8q5 4 15 0l5 -7h-10q-6 0 -7 -2l-5 -5q9 -5 9 -20q0 -3 -1.5 -7t-3.5 -6l-1 -2q-3 1 -3 13l-4 9q-5 -6 -12 -2q-2 2 -9 1q-2 0 -2.5 5t1.5 10.5t4 7.5q3 2 3 7v2q1 8 8 11z" />
    <glyph glyph-name="u1f1e6-1f1e8_layer16" 
d="M355 183q5 0 8.5 -3t4.5 -5l1 -3h-12q-2 1 -3 1q-4 0 -8 -7q-1 -2 -3.5 -1.5t-4.5 2t-1 3.5q7 13 18 13z" />
    <glyph glyph-name="u1f1e6-1f1e8_layer17" 
d="M332 170q1 2 5 1q1 0 3.5 -1.5t3.5 -1.5q3 -1 5.5 -4t4.5 -7t2 -7t-1 -6.5t-2 -5.5t-2 -4.5l-1 -2.5q-1 -3 -3 2q-1 2 -1 10.5t-5 11.5q-11 6 -9 15zM322 117l1 -4.5t1 -8.5v-1.5v-2.5q0 -5 -4 -10q-3 1 -6 6q-5 7 -2 13l3.5 3.5t4.5 3.5z" />
    <glyph glyph-name="u1f1e6-1f1e8_layer18" 
d="M319 124v-1.5t0.5 -3.5t0.5 -4.5v-5v-3.5q-2 -8 -6.5 -15t-8.5 -6t-1 7q4 7 2 13q0 1 1 3.5t3 5l4 5t3 4.5zM442 194l0.5 0.5t3 1t5.5 -0.5q6 -3 8 -11l3 -9q2 -2 4 -7.5t1.5 -10.5t-2.5 -5q-7 1 -9 -1q-7 -4 -13 2q-3 -5 -3 -9q0 -12 -3 -13q-6 8 -6 15q0 15 9 20
q-3 2 -5 5q-1 2 -7 2h-10q2 6 5 7q10 4 15 0l10 -8l1 5l-4.5 4.5t-2.5 8.5v4z" />
    <glyph glyph-name="u1f1e6-1f1e8_layer19" 
d="M329 154q5 -9 12 -1q1 -10 -2 -16l-19 -24l-2 11z" />
    <glyph glyph-name="u1f1e6-1f1e8_layer2" 
d="M346 198q4 -8 13 -8q4 0 7.5 1.5t5.5 3.5l2 1l9 -12q-6 -3 -6 -8l-3 7q-2 -2 -4 -3q-1 4 0 6q-4 -3 -10 -3q-10 0 -13 7zM383 206.5q0 -3.5 -4 -3.5h-4q-3 0 -3 3.5t3 3.5h4q4 0 4 -3.5zM403 212q0 -4 -4 -4h-3q-4 0 -4 4t4 4h3q4 0 4 -4z" />
    <glyph glyph-name="u1f1e6-1f1e8_layer20" 
d="M319 176q3 1 7 -0.5t5 -4.5q2 -10 0 -17v-6.5t-1 -7.5q0 -1 -3.5 -4.5t-3.5 -6.5q-1 -4 -10 -14q-15 -17 -18 -16q-1 0 -1.5 3t-1 7.5t0 10t1.5 12t3 12t5 11t6 9.5t5.5 6.5l4.5 4.5z" />
    <glyph glyph-name="u1f1e6-1f1e8_layer21" 
d="M336 193q2 0 3 -1q-2 -1 -3 1zM450 193q-1 -2 -3 -1q1 1 3 1z" />
    <glyph glyph-name="u1f1e6-1f1e8_layer22" 
d="M454 92q-3 -3 -5 -4t-4 2l8 2h1z" />
    <glyph glyph-name="u1f1e6-1f1e8_layer23" 
d="M425 89q1 2 3 4.5t4 3.5l2 2q3 6 8 8q4 -1 1 -3q-5 -3 -2 -4q2 -1 3 -4q0 1 -5 0q-3 0 -6 -1q-3 -2 -4 -4v-1l-2 -2q0 -1 4 -1q10 0 11 -1l-5 -1q-8 0 -8 -0.5t2 -0.5h4h3q7 -3 11 -2q7 2 9 1l1 -1v-1q-7 -1 -14 0q-1 0 -4.5 1.5t-6.5 0.5q-2 -1 -2 -3h-2q-2 -1 -7 1
q-2 1 -3 2l-1 1z" />
    <glyph glyph-name="u1f1e6-1f1e8_layer24" 
d="M448 111l4 -7l-6 3q-5 -1 -7 -1q-4 0 -5 3q1 2 3 1.5t4 -1.5l1 2l-4 0.5t-5 1.5l3 4q-2 4 0 5l4 -4q1 3 3 4l2 -7l3 2v-6zM459 117l3 -2q1 1 -2 2q2 1 2 -2l-2 -2t1 -2q1 0 2 -1l-3 -4l-2 3l-3 -5l-1 1l2 5q-3 0 -4 1q1 2 3 3q3 0 4 3zM498 90q-2 -3 -4 -3l-4 1l-5 -4
q-1 0 -4 7q-1 2 4 5l2 -2q2 4 4 4l2 -5q4 -2 5 -3zM439 100l4 -2l4 -3l-7 3v-4q2 -5 -3 -5q-2 0 -3 5v2q-4 -4 -9 -2q-2 1 -2 3.5t2 3.5l8 1q0 3 2 4z" />
    <glyph glyph-name="u1f1e6-1f1e8_layer25" 
d="M431 183q11 0 18 -13q1 -2 -1 -3.5t-4.5 -2t-3.5 1.5q-4 7 -8 7l-3 -1h-12q3 11 14 11z" />
    <glyph glyph-name="u1f1e6-1f1e8_layer26" 
d="M454 170q2 -9 -9 -15q-5 -3 -5 -11.5t-1 -10.5q-2 -5 -3 -2l-1.5 3.5t-3 7.5t-1.5 8q0 5 4 10.5t8 7.5q1 0 3.5 1.5t3.5 1.5q4 1 5 -1zM463 117q9 -4 11 -8q3 -6 -2 -13l-7 -6q-3 5 -3 10v2.5v1.5q-1 4 0 8.5z" />
    <glyph glyph-name="u1f1e6-1f1e8_layer27" 
d="M467 124q2 -1 4 -4t5.5 -8t3.5 -7q-2 -6 2 -13q3 -6 -1 -7t-8.5 6t-6.5 15v3.5v5t0.5 4.5t0.5 3.5v1.5z" />
    <glyph glyph-name="u1f1e6-1f1e8_layer28" 
d="M457 154l11 -30l-2 -11q-15 17 -19 24q-1 2 -1.5 6.5t-0.5 6.5v3q7 -8 12 1z" />
    <glyph glyph-name="u1f1e6-1f1e8_layer29" 
d="M467 176q14 -12 22 -32q3 -9 4 -20t0 -17.5t-2 -7.5q-3 -1 -18 16q-10 10 -10 14q-1 3 -4 6.5t-3 4.5q-1 2 -1 7.5t-1 6.5q-1 7 1 17q1 3 4.5 4.5t7.5 0.5z" />
    <glyph glyph-name="u1f1e6-1f1e8_layer3" 
d="M385 204q-3 -3 -5 1l-2 2q-2 3 2 5v1q3 2 5 -2l2 -2q2 -3 -1 -5h-1zM407 206q-3 -2 -5 1l-2 3q-2 3 2 5q3 2 5 -1l2 -2q2 -3 -1 -6h-1z" />
    <glyph glyph-name="u1f1e6-1f1e8_layer30" 
d="M330 238l11 -6q5 2 9.5 1t5.5 -5q-4 -1 -6 -4l3 -12q-5 0 -7 4q-1 -6 -5 -10l-6 -2l7 13q3 6 -3 2q-13 -9 -19 -2q19 8 23 10q-1 0 -6.5 0.5t-6.5 -0.5l-7 -2v2t1.5 2t5.5 1q1 2 -2 4zM429 185l5 5q2 4 -2 7l-6 2q2 2 4.5 2t4.5 -1l2 -1q-1 4 -4 8l-2 2.5t-3 4t-2 5
t0 6.5l6 5q-1 -3 0 -6.5t3 -6.5t4 -8t2 -9q2 -13 -12 -15zM470 229q6 -2 6 -6q0 -6 -8 -6q3 2 3 5z" />
    <glyph glyph-name="u1f1e6-1f1e8_layer31" 
d="M370 234q10 -7 13 -7h13l1 4q6 1 9 1h7l1 -4l-5 -12h-17q-8 0 -10 5l-4 4l-3.5 3.5t-3.5 2.5q-4 4 -1 3z" />
    <glyph glyph-name="u1f1e6-1f1e8_layer32" 
d="M397 227q0 -2 -1.5 -2t-1.5 2v25q0 2 1.5 2t1.5 -2v-25zM385 226q0 -1 -1 -1t-1 1v23q0 1 1 1t1 -1v-23zM404 226q0 -1 -1.5 -1t-1.5 1v23q0 1 1.5 1t1.5 -1v-23z" />
    <glyph glyph-name="u1f1e6-1f1e8_layer33" 
d="M388 242.5q0 -1.5 -5.5 -1.5t-5.5 1.5t5.5 1.5t5.5 -1.5zM390 236.5q0 -1.5 -6.5 -1.5t-6.5 1.5t6.5 1.5t6.5 -1.5zM400 245q0 -1 -5 -1t-5 1t5 1t5 -1z" />
    <glyph glyph-name="u1f1e6-1f1e8_layer34" 
d="M408 245.5q0 -0.5 -4.5 -0.5t-4.5 0.5t4.5 0.5t4.5 -0.5zM399 239q0 -1 -4.5 -1t-4.5 1t4.5 1t4.5 -1zM408 239q0 -1 -4.5 -1t-4.5 1t4.5 1t4.5 -1z" />
    <glyph glyph-name="u1f1e6-1f1e8_layer35" 
d="M372 214l2 5q3 2 6 -2q4 -3 6 0q1 2 -1 4q3 2 6 0q2 -3 4.5 -2.5t0.5 4.5q5 1 7 -3q2 -5 6 -2l-1 4q4 1 5 -2l3 -3q2 3 5 0q5 -6 -3 -7l-7 4l-5 -2l-5 3q-4 -1 -6 -1t-4 1t-3 0q-3 -4 -9 -1q-3 -6 -7 -6q-8 0 -8 6q0 3 1.5 4t2.5 0z" />
    <glyph glyph-name="u1f1e6-1f1e8_layer36" 
d="M363 201q-8 -2 -8 -6l-2 -5q-3 2 -5 4q-3 5 -2 11q2 6 6 11q5 6 3 12l-3 5q8 0 9 -5l-1 -9q1 -1 3 2q1 -7 -3 -8q-3 -4 -4 -7q0 -1 -1 -3l-1 -3q2 1 4 1h3h2zM320 227q-3 -3 -3 -5q0 -6 7 -8q-12 5 -12 9t8 4zM425 223q0 1 0.5 3t3 4.5t5.5 1.5q18 -1 19 0l1 6q4 -1 5 -3
l-2 -5q3 1 5 -1l4 -4q-6 2 -10 2h-12q9 -5 14 -7q10 -4 16 -2q-7 -4 -9 -5q-3 -2 -9 1l-10 6q0 -4 2 -9l5 -8q-6 2 -8 4l-3 9q0 -1 -1 -1.5l-3 -1.5t-4 -1q2 2 4 5q2 6 1 8q-4 6 -8 5l-2.5 -2.5l-2.5 -2.5zM402 210l7 -3q1 -4 5 -10q6 -8 13 -7l7 2q-1 -8 -9 -8q-3 0 -5 1.5
t-3 2.5l-1 2l3 -6l-1 -5q-2 2 -3.5 4t-2.5 4l-2 4t-2 3v1l4 -13q-7 1 -11 10l-2 11l-6 -9q-1 12 9 16z" />
    <glyph glyph-name="u1f1e6-1f1e8_layer37" 
d="M270 192h-270v128q0 15 8 28l1 3h39v25q4 1 9 1h213v-185z" />
    <glyph glyph-name="u1f1e6-1f1e8_layer38" 
d="M270 377v-29l-40 -28h40v-71h-40l40 -28v-29h-33l-66 46v-46h-71v37l-53 -37h-47v18l55 39h-55v71h54l-45 31q2 3 5 6l53 -37h24l-66 47q10 7 23 9l52 -36v37h71v-47l66 47h33z" />
    <glyph glyph-name="u1f1e6-1f1e8_layer39" 
d="M156 377v-71h114v-43h-114v-71h-42v71h-114v43h114v71h42z" />
    <glyph glyph-name="u1f1e6-1f1e8_layer4" 
d="M393 205q-3 -2 -6 1l-1 2q-2 4 1 6h1q3 2 5 -1l2 -2q2 -4 -2 -6zM412 203q-4 0 -4 4v3q0 3 4 3h1q4 0 4 -4v-2q-1 -4 -4 -4h-1z" />
    <glyph glyph-name="u1f1e6-1f1e8_layer40" 
d="M270 377v-3l-77 -54h-22v2l78 55h21zM25 367l66 -47h-24l-53 37q5 6 11 10zM92 249h8v-12l-65 -45h-25zM270 195l-77 54h25l52 -37v-17z" />
    <glyph glyph-name="u1f1e6-1f1e8_layer5" 
d="M393 210q5 1 12.5 -10.5t8.5 -16.5q1 -2 -1.5 -7.5t-5.5 -6.5q-3 -2 -10.5 -2.5t-11.5 1.5q-2 2 -5 15l-7 11l-7 1l2 3l9 -1v3h-3q10 9 17 10h2z" />
    <glyph glyph-name="u1f1e6-1f1e8_layer6" 
d="M390 170q4 4 10.5 8.5t8.5 3.5q6 -3 -1 -10q-1 -2 -5.5 -2.5t-8.5 0.5h-4z" />
    <glyph glyph-name="u1f1e6-1f1e8_layer7" 
d="M393 172h39v-35q0 -27 -16 -42q-2 -2 -5 -4t-6 -3t-6 -2.5t-4 -1.5l-2 -1q-16 6 -23 12q-16 15 -16 42v35h39z" />
    <glyph glyph-name="u1f1e6-1f1e8_layer8" 
d="M421 106q1 0 3 -1q-3 -6 -8 -10q-3 -3 -9 -6t-10 -4l-4 -2q-16 6 -23 12q-5 4 -8 10q2 1 4 1t6.5 -3t7.5 -3t7 2.5t6.5 2.5t7 -2.5t7 -2.5t7 3t6.5 3zM421 133q3 0 10 -4q0 -6 -2 -11q-4 2 -7 2t-8 -2.5t-7 -2.5q-3 0 -7 2t-6.5 2t-6.5 -2t-6 -2t-7 2.5t-8.5 2.5t-8.5 -3
q-2 5 -2 11q10 5 11 5q2 0 6.5 -2.5t7.5 -2.5t7 2.5t6.5 2.5t7 -2.5t7 -2.5t7 2.5t6.5 2.5zM421 161q2 0 11 -5v-12q-7 4 -10 4t-8 -3t-7 -3q-3 0 -7 2.5t-6.5 2.5t-6.5 -2.5t-6 -2.5t-7 3t-9 3q-2 0 -11 -5v13l12 5q2 0 6.5 -3t7.5 -3t7 3t6.5 3t7 -3t7 -3t7 3t6.5 3z" />
    <glyph glyph-name="u1f1e6-1f1e8_layer9" 
d="M357 115l36 38l35 -38q-2 -8 -7 -14l-28 32l-28 -32q-5 6 -8 14z" />
    <glyph glyph-name="u1f1e6-1f1e9_layer0" 
d="M512 64q0 -24 -16.5 -40.5t-40.5 -16.5h-398q-24 0 -40.5 16.5t-16.5 40.5v256q0 24 16.5 40.5t40.5 16.5h398q24 0 40.5 -16.5t16.5 -40.5v-256z" />
    <glyph glyph-name="u1f1e6-1f1e9_layer1" 
d="M57 377h114v-370h-114q-24 0 -40.5 16.5t-16.5 40.5v256q0 24 16.5 40.5t40.5 16.5z" />
    <glyph glyph-name="u1f1e6-1f1e9_layer10" 
d="M208 147q0 -3 26 -8q3 0 1 -4q-1 -1 -3 -1q-15 1 -23 5zM240 139q7 -1 13 -1h11l4 -6q-8 -1 -13 -1l-13 1zM271 139q10 2 16 3q3 1 9 2.5t7 2.5q2 0 4 -3v-1l1 -1q-10 -5 -16 -6l-21 -4q-2 6 0 7z" />
    <glyph glyph-name="u1f1e6-1f1e9_layer2" 
d="M171 377h170v-370h-170v370z" />
    <glyph glyph-name="u1f1e6-1f1e9_layer3" 
d="M328 169q2 -7 -5 -9q12 -16 -5 -29q-6 -4 -34 -6q-4 0 -6.5 -1.5t-2.5 -2.5l-1 -1q3 -3 2.5 -5.5t-3.5 -3.5l-2 -2l-10 1l-5 -5l-5 5l-10 -1l-2 2t-3 4t2 5q-2 4 -10 5q-28 2 -34 6q-17 13 -5 29q-1 0 -2 0.5t-2.5 3t-0.5 5.5q4 6 8 3l4 7q1 4 -2 9l-5 1q-1 3 1 6
q-10 5 -10 17q-1 8 6 12.5t12 0.5q0 5 2 5l4 -3q-1 7 -6 11q-16 15 7 22q19 6 19 -6q1 -2 -1 -4l11 -2q5 0 0 10q-1 3 0.5 8t6.5 4.5t8 -2.5l2 -2h5h5l2 2t3 1.5t5 1.5q5 0 6.5 -5t0.5 -8q-5 -10 0 -10l11 2q-5 5 1 10q6 4 17 0q23 -7 7 -22q-3 -2 -4 -4.5t-1 -4.5l-1 -2
q2 3 4 3l2 -5q5 4 12 -1t6 -13q0 -4 -2.5 -8.5t-4.5 -5.5l-3 -2q6 -8 -4 -7q-3 -6 -2.5 -9.5t2.5 -4.5l2 -2q0 3 4 1z" />
    <glyph glyph-name="u1f1e6-1f1e9_layer4" 
d="M253 197h-42v42h42v-42z" />
    <glyph glyph-name="u1f1e6-1f1e9_layer5" 
d="M227 213v-3l-11 -12l-2 2zM247 230l1 1q2 2 2.5 3t-1 1.5t-3.5 0.5v-3q0 -2 -1 -3l-5 -5l-2 2q4 3 5 4l-0.5 1.5t-0.5 2.5q0 3 6 3q5 0 5 -5z" />
    <glyph glyph-name="u1f1e6-1f1e9_layer6" 
d="M237 208q1 -6 3 -7q1 0 2 1.5t2 3.5t2 3t3 1t3 -2t0 -4t-3 -3l-1 2q1 1 1.5 2t-0.5 2q-1 0 -2 -1t-2 -3q-1 -4 -5 -4t-6 7zM228 208l3 -2q-2 -7 -6 -7t-5 4l-4 4q-2 -1 1 -4l-1 -2q-6 1 -3 7q1 2 3 2q3 0 5 -4.5t4 -4.5z" />
    <glyph glyph-name="u1f1e6-1f1e9_layer7" 
d="M233 238l12 -16l-6 -17q-2 2 -6 2l-6 -2l-7 17z" />
    <glyph glyph-name="u1f1e6-1f1e9_layer8" 
d="M234 232l9 -10l-5 -13l-4 1v22zM231 232v-22l-4 -1l-4 13zM211 193h42v-43q-10 2 -18 0q-24 -5 -24 17v26zM259 197v42h42v-42h-42zM301 193v-26q0 -22 -24 -17h-18v43h42z" />
    <glyph glyph-name="u1f1e6-1f1e9_layer9" 
d="M235 150q-3 -1 -6 -1v44h7v-43h-1zM248 150q-3 1 -6 1v42h6v-43zM223 150q-4 1 -7 3v40h7v-43zM264 239h6v-42h-6v42zM276 239h7v-42h-7v42zM289 239h7v-42h-7v42zM265 186l4 3h5v-2q7 0 13 1q4 -2 5 -5q-1 -1 0 -5v-3q0 -2 -3 -3v6q-1 -3 -2 -4l-3 -1q3 3 2 4t-4 1.5
t-3 -0.5v-1l-2 -5l-1 2v5l-3 -1q0 -1 1 -2t1 -2h-3q0 1 -1.5 2t-0.5 2l3 2q-2 1 -3 2.5t-5 1.5v2zM265 167l4 3h5v-2h13q4 -1 5 -4q-1 -1 0 -5v-3q0 -2 -3 -3v6q-1 -3 -2 -5h-3q3 3 2 4t-4 1.5t-3 -0.5v-1q-1 -5 -2 -5l-1 2v5l-3 -2l1 -1t1 -2h-3l-1.5 1.5t-0.5 2.5l3 2
q-2 1 -3 2.5t-5 1.5v2z" />
    <glyph glyph-name="u1f1e6-1f1ea_layer0" 
d="M455 377q24 0 40.5 -16.5t16.5 -40.5v-71h-384v128h327z" />
    <glyph glyph-name="u1f1e6-1f1ea_layer1" 
d="M128 249h384v-114h-384v114z" />
    <glyph glyph-name="u1f1e6-1f1ea_layer2" 
d="M128 7v128h384v-71q0 -24 -16.5 -40.5t-40.5 -16.5h-327z" />
    <glyph glyph-name="u1f1e6-1f1ea_layer3" 
d="M57 377h71v-370h-71q-24 0 -40.5 16.5t-16.5 40.5v256q0 24 16.5 40.5t40.5 16.5z" />
    <glyph glyph-name="u1f1e6-1f1eb_layer0" 
d="M512 64q0 -24 -16.5 -40.5t-40.5 -16.5h-398q-24 0 -40.5 16.5t-16.5 40.5v256q0 24 16.5 40.5t40.5 16.5h398q24 0 40.5 -16.5t16.5 -40.5v-256z" />
    <glyph glyph-name="u1f1e6-1f1eb_layer1" 
d="M455 377q24 0 40.5 -16.5t16.5 -40.5v-256q0 -24 -16.5 -40.5t-40.5 -16.5h-114v370h114z" />
    <glyph glyph-name="u1f1e6-1f1eb_layer10" 
d="M149 119q10 0 19 6q26 18 41 3q-10 2 -18 -5q-16 -13 -29 -12zM289 99l16 -15q-6 1 -16 -3q-20 -9 -33.5 -9t-33.5 9q-4 2 -8 2.5t-6 0.5h-2l16 15q2 -1 5.5 -2t12 -2t16.5 -1q4 0 9 0.5t9 1t7.5 1.5t5.5 1z" />
    <glyph glyph-name="u1f1e6-1f1eb_layer11" 
d="M203 77q0 5 5 5q1 0 5.5 -0.5t8.5 -2t4 -2.5q0 -2 -7.5 -3.5t-10.5 -1.5q-5 0 -5 5z" />
    <glyph glyph-name="u1f1e6-1f1eb_layer12" 
d="M185 77q-6 1 -9.5 3.5t-4.5 4.5v2q0 -1 1.5 -1.5t6 -1.5t8.5 0l17 1q-1 -1 -2 -2.5t-2 -5.5t3 -6q4 -3 15 0q11 2 14 2q5 0 5 -5t-5 -5q-3 0 -14 3q-2 0 -6 1l-4 1q-3 0 -22 -1q-13 -1 -21 8q10 -3 20 2zM118 189l3 -1.5t8.5 -4t9.5 -1.5q25 3 29 -3l6 -13q-6 3 -13 3
q-21 0 -30 3q-7 2 -13 17zM130 231q0 2 3 2.5t4 1.5t-0.5 4.5t-0.5 4.5q4 3 21 -16q5 -5 7 -13t0 -10h-1q-4 8 -11 12zM287 120q2 0 4.5 1.5t4.5 4t3 2.5q0 -8 -9 -15q-2 -1 -3.5 -4.5t-0.5 -6.5v-2q-11 -3 -15 -3q0 1 2 5q-1 0 -2 -1l-3 -4q-6 -1 -12 -1l-13 1l-2 4
q-2 1 -3 2q2 -5 2 -6l-15 3q2 9 -4 13q-4 3 -6 7t-2 6l-1 2q1 0 3.5 -2.5t4.5 -4t4 -1.5q4 -1 10 -10q0 9 9 9h3q2 2 5 2t5 -1q2 1 4 1q4 0 6 -2h3q8 0 9 -8q5 8 9 9z" />
    <glyph glyph-name="u1f1e6-1f1eb_layer2" 
d="M171 377h170v-370h-170v370z" />
    </font>
</defs>
</svg>
